<?xml version="1.0" encoding="utf-8" standalone="no"?>
<!DOCTYPE svg PUBLIC "-//W3C//DTD SVG 1.1//EN"
  "http://www.w3.org/Graphics/SVG/1.1/DTD/svg11.dtd">
<svg xmlns:xlink="http://www.w3.org/1999/xlink" width="288pt" height="233.28pt" viewBox="0 0 288 233.28" xmlns="http://www.w3.org/2000/svg" version="1.1">
 <metadata>
  <rdf:RDF xmlns:dc="http://purl.org/dc/elements/1.1/" xmlns:cc="http://creativecommons.org/ns#" xmlns:rdf="http://www.w3.org/1999/02/22-rdf-syntax-ns#">
   <cc:Work>
    <dc:type rdf:resource="http://purl.org/dc/dcmitype/StillImage"/>
    <dc:date>2025-05-26T21:20:51.776820</dc:date>
    <dc:format>image/svg+xml</dc:format>
    <dc:creator>
     <cc:Agent>
      <dc:title>Matplotlib v3.10.0, https://matplotlib.org/</dc:title>
     </cc:Agent>
    </dc:creator>
   </cc:Work>
  </rdf:RDF>
 </metadata>
 <defs>
  <style type="text/css">*{stroke-linejoin: round; stroke-linecap: butt}</style>
 </defs>
 <g id="figure_1">
  <g id="patch_1">
   <path d="M 0 233.28 
L 288 233.28 
L 288 0 
L 0 0 
z
" style="fill: #ffffff"/>
  </g>
  <g id="axes_1">
   <g id="patch_2">
    <path d="M 72.831981 196.510455 
L 277.2 196.510455 
L 277.2 8.748 
L 72.831981 8.748 
z
" style="fill: #ffffff"/>
   </g>
   <g id="matplotlib.axis_1">
    <g id="xtick_1">
     <g id="line2d_1">
      <defs>
       <path id="m30f32b6955" d="M 0 0 
L 0 -3 
" style="stroke: #000000; stroke-width: 0.5"/>
      </defs>
      <g>
       <use xlink:href="#m30f32b6955" x="112.026803" y="196.510455" style="stroke: #000000; stroke-width: 0.5"/>
      </g>
     </g>
     <g id="line2d_2">
      <defs>
       <path id="m07b924896c" d="M 0 0 
L 0 3 
" style="stroke: #000000; stroke-width: 0.5"/>
      </defs>
      <g>
       <use xlink:href="#m07b924896c" x="112.026803" y="8.748" style="stroke: #000000; stroke-width: 0.5"/>
      </g>
     </g>
     <g id="text_1">
      <!-- $\mathdefault{2\times10^{1}}$ -->
      <g transform="translate(92.146803 211.072018) scale(0.14 -0.14)">
       <defs>
        <path id="STIXGeneral-Regular-32" d="M 3034 877 
L 2688 0 
L 186 0 
L 186 77 
L 1325 1286 
Q 1773 1754 1965 2144 
Q 2157 2534 2157 2950 
Q 2157 3379 1920 3616 
Q 1683 3853 1267 3853 
Q 922 3853 720 3673 
Q 518 3494 326 3021 
L 192 3053 
Q 301 3648 630 3987 
Q 960 4326 1523 4326 
Q 2054 4326 2380 4006 
Q 2707 3686 2707 3200 
Q 2707 2477 1888 1613 
L 832 486 
L 2330 486 
Q 2541 486 2665 569 
Q 2790 653 2944 915 
L 3034 877 
z
" transform="scale(0.015625)"/>
        <path id="STIXGeneral-Regular-d7" d="M 3821 141 
L 3526 -160 
L 2048 1312 
L 570 -160 
L 275 134 
L 1747 1613 
L 275 3091 
L 576 3386 
L 2048 1914 
L 3526 3386 
L 3821 3098 
L 2349 1613 
L 3821 141 
z
" transform="scale(0.015625)"/>
        <path id="STIXGeneral-Regular-31" d="M 2522 0 
L 755 0 
L 755 96 
Q 1107 115 1235 227 
Q 1363 339 1363 608 
L 1363 3482 
Q 1363 3795 1171 3795 
Q 1082 3795 883 3718 
L 710 3654 
L 710 3744 
L 1856 4326 
L 1914 4307 
L 1914 486 
Q 1914 275 2042 185 
Q 2170 96 2522 96 
L 2522 0 
z
" transform="scale(0.015625)"/>
        <path id="STIXGeneral-Regular-30" d="M 3046 2112 
Q 3046 1683 2963 1302 
Q 2880 922 2717 602 
Q 2554 282 2266 96 
Q 1978 -90 1600 -90 
Q 1210 -90 915 108 
Q 621 307 461 640 
Q 301 973 227 1350 
Q 154 1728 154 2150 
Q 154 2746 301 3222 
Q 448 3699 790 4012 
Q 1133 4326 1626 4326 
Q 2253 4326 2649 3712 
Q 3046 3098 3046 2112 
z
M 2432 2080 
Q 2432 3091 2217 3625 
Q 2003 4160 1587 4160 
Q 1190 4160 979 3622 
Q 768 3085 768 2106 
Q 768 1120 979 598 
Q 1190 77 1600 77 
Q 2003 77 2217 598 
Q 2432 1120 2432 2080 
z
" transform="scale(0.015625)"/>
       </defs>
       <use xlink:href="#STIXGeneral-Regular-32" transform="translate(0 0.684375)"/>
       <use xlink:href="#STIXGeneral-Regular-d7" transform="translate(64.439981 0.684375)"/>
       <use xlink:href="#STIXGeneral-Regular-31" transform="translate(142.879962 0.684375)"/>
       <use xlink:href="#STIXGeneral-Regular-30" transform="translate(192.879947 0.684375)"/>
       <use xlink:href="#STIXGeneral-Regular-31" transform="translate(244.454932 36.684375) scale(0.7)"/>
      </g>
     </g>
    </g>
    <g id="xtick_2">
     <g id="line2d_3">
      <g>
       <use xlink:href="#m30f32b6955" x="166.366634" y="196.510455" style="stroke: #000000; stroke-width: 0.5"/>
      </g>
     </g>
     <g id="line2d_4">
      <g>
       <use xlink:href="#m07b924896c" x="166.366634" y="8.748" style="stroke: #000000; stroke-width: 0.5"/>
      </g>
     </g>
     <g id="text_2">
      <!-- $\mathdefault{3\times10^{1}}$ -->
      <g transform="translate(146.486634 211.072018) scale(0.14 -0.14)">
       <defs>
        <path id="STIXGeneral-Regular-33" d="M 390 3264 
L 288 3290 
Q 435 3770 748 4048 
Q 1062 4326 1542 4326 
Q 1990 4326 2265 4083 
Q 2541 3840 2541 3450 
Q 2541 2925 1946 2566 
Q 2298 2413 2477 2227 
Q 2758 1914 2758 1402 
Q 2758 890 2464 506 
Q 2246 211 1840 60 
Q 1434 -90 979 -90 
Q 262 -90 262 275 
Q 262 378 339 442 
Q 416 506 525 506 
Q 685 506 915 339 
Q 1197 141 1466 141 
Q 1818 141 2058 425 
Q 2298 710 2298 1120 
Q 2298 1856 1632 2048 
Q 1434 2112 979 2112 
L 979 2202 
Q 1338 2323 1517 2432 
Q 2035 2726 2035 3290 
Q 2035 3610 1852 3776 
Q 1670 3942 1344 3942 
Q 768 3942 390 3264 
z
" transform="scale(0.015625)"/>
       </defs>
       <use xlink:href="#STIXGeneral-Regular-33" transform="translate(0 0.684375)"/>
       <use xlink:href="#STIXGeneral-Regular-d7" transform="translate(64.439981 0.684375)"/>
       <use xlink:href="#STIXGeneral-Regular-31" transform="translate(142.879962 0.684375)"/>
       <use xlink:href="#STIXGeneral-Regular-30" transform="translate(192.879947 0.684375)"/>
       <use xlink:href="#STIXGeneral-Regular-31" transform="translate(244.454932 36.684375) scale(0.7)"/>
      </g>
     </g>
    </g>
    <g id="xtick_3">
     <g id="line2d_5">
      <g>
       <use xlink:href="#m30f32b6955" x="204.921357" y="196.510455" style="stroke: #000000; stroke-width: 0.5"/>
      </g>
     </g>
     <g id="line2d_6">
      <g>
       <use xlink:href="#m07b924896c" x="204.921357" y="8.748" style="stroke: #000000; stroke-width: 0.5"/>
      </g>
     </g>
     <g id="text_3">
      <!-- $\mathdefault{4\times10^{1}}$ -->
      <g transform="translate(185.041357 211.072018) scale(0.14 -0.14)">
       <defs>
        <path id="STIXGeneral-Regular-34" d="M 3027 1069 
L 2368 1069 
L 2368 0 
L 1869 0 
L 1869 1069 
L 77 1069 
L 77 1478 
L 2086 4326 
L 2368 4326 
L 2368 1478 
L 3027 1478 
L 3027 1069 
z
M 1869 1478 
L 1869 3674 
L 333 1478 
L 1869 1478 
z
" transform="scale(0.015625)"/>
       </defs>
       <use xlink:href="#STIXGeneral-Regular-34" transform="translate(0 0.684375)"/>
       <use xlink:href="#STIXGeneral-Regular-d7" transform="translate(64.439981 0.684375)"/>
       <use xlink:href="#STIXGeneral-Regular-31" transform="translate(142.879962 0.684375)"/>
       <use xlink:href="#STIXGeneral-Regular-30" transform="translate(192.879947 0.684375)"/>
       <use xlink:href="#STIXGeneral-Regular-31" transform="translate(244.454932 36.684375) scale(0.7)"/>
      </g>
     </g>
    </g>
    <g id="xtick_4">
     <g id="line2d_7">
      <g>
       <use xlink:href="#m30f32b6955" x="234.826724" y="196.510455" style="stroke: #000000; stroke-width: 0.5"/>
      </g>
     </g>
     <g id="line2d_8">
      <g>
       <use xlink:href="#m07b924896c" x="234.826724" y="8.748" style="stroke: #000000; stroke-width: 0.5"/>
      </g>
     </g>
    </g>
    <g id="xtick_5">
     <g id="line2d_9">
      <g>
       <use xlink:href="#m30f32b6955" x="259.261188" y="196.510455" style="stroke: #000000; stroke-width: 0.5"/>
      </g>
     </g>
     <g id="line2d_10">
      <g>
       <use xlink:href="#m07b924896c" x="259.261188" y="8.748" style="stroke: #000000; stroke-width: 0.5"/>
      </g>
     </g>
     <g id="text_4">
      <!-- $\mathdefault{6\times10^{1}}$ -->
      <g transform="translate(239.381188 211.072018) scale(0.14 -0.14)">
       <defs>
        <path id="STIXGeneral-Regular-36" d="M 2854 4378 
L 2867 4275 
Q 2112 4154 1606 3664 
Q 1101 3174 973 2451 
Q 1344 2739 1786 2739 
Q 2349 2739 2672 2380 
Q 2995 2022 2995 1402 
Q 2995 774 2669 378 
Q 2291 -90 1651 -90 
Q 870 -90 518 557 
Q 218 1107 218 1786 
Q 218 2835 915 3552 
Q 1312 3962 1731 4131 
Q 2150 4301 2854 4378 
z
M 2419 1203 
Q 2419 2445 1555 2445 
Q 1235 2445 1024 2275 
Q 813 2106 813 1702 
Q 813 954 1046 522 
Q 1280 90 1722 90 
Q 2061 90 2240 394 
Q 2419 698 2419 1203 
z
" transform="scale(0.015625)"/>
       </defs>
       <use xlink:href="#STIXGeneral-Regular-36" transform="translate(0 0.684375)"/>
       <use xlink:href="#STIXGeneral-Regular-d7" transform="translate(64.439981 0.684375)"/>
       <use xlink:href="#STIXGeneral-Regular-31" transform="translate(142.879962 0.684375)"/>
       <use xlink:href="#STIXGeneral-Regular-30" transform="translate(192.879947 0.684375)"/>
       <use xlink:href="#STIXGeneral-Regular-31" transform="translate(244.454932 36.684375) scale(0.7)"/>
      </g>
     </g>
    </g>
    <g id="text_5">
     <!-- Number of Beads $N$ -->
     <g transform="translate(119.155991 227.672018) scale(0.14 -0.14)">
      <defs>
       <path id="STIXGeneral-Regular-4e" d="M 4525 4237 
L 4525 4115 
Q 4198 4083 4102 4000 
Q 4000 3910 3958 3756 
Q 3917 3603 3917 3245 
L 3917 -70 
L 3802 -70 
L 979 3443 
L 979 960 
Q 979 474 1088 323 
Q 1197 173 1574 122 
L 1574 0 
L 77 0 
L 77 122 
Q 474 166 586 310 
Q 698 454 698 960 
L 698 3776 
Q 531 3981 416 4048 
Q 301 4115 77 4115 
L 77 4237 
L 1165 4237 
L 3635 1146 
L 3635 3322 
Q 3635 3808 3514 3949 
Q 3437 4032 3344 4061 
Q 3251 4090 3008 4115 
L 3008 4237 
L 4525 4237 
z
" transform="scale(0.015625)"/>
       <path id="STIXGeneral-Regular-75" d="M 3072 320 
L 3072 230 
Q 2573 96 2195 -58 
L 2163 -38 
L 2163 486 
L 2150 486 
Q 1747 -64 1235 -64 
Q 870 -64 662 160 
Q 454 384 454 755 
L 454 2362 
Q 454 2598 371 2688 
Q 288 2778 58 2790 
L 58 2880 
L 992 2880 
L 992 813 
Q 992 595 1123 451 
Q 1254 307 1446 307 
Q 1760 307 1984 506 
Q 2067 582 2099 649 
Q 2131 717 2131 877 
L 2131 2355 
Q 2131 2605 2041 2678 
Q 1952 2752 1658 2771 
L 1658 2880 
L 2669 2880 
L 2669 685 
Q 2669 461 2742 390 
Q 2816 320 3034 320 
L 3072 320 
z
" transform="scale(0.015625)"/>
       <path id="STIXGeneral-Regular-6d" d="M 4960 0 
L 3565 0 
L 3565 96 
Q 3834 122 3907 208 
Q 3981 294 3981 576 
L 3981 1894 
Q 3981 2278 3869 2444 
Q 3757 2611 3488 2611 
Q 3264 2611 3107 2521 
Q 2950 2432 2803 2221 
L 2803 608 
Q 2803 301 2896 201 
Q 2989 102 3264 96 
L 3264 0 
L 1830 0 
L 1830 96 
Q 2112 115 2189 188 
Q 2266 262 2266 550 
L 2266 1901 
Q 2266 2611 1850 2611 
Q 1670 2611 1468 2531 
Q 1267 2451 1171 2336 
Q 1088 2240 1088 2227 
L 1088 448 
Q 1088 243 1177 176 
Q 1267 109 1523 96 
L 1523 0 
L 102 0 
L 102 96 
Q 371 102 460 195 
Q 550 288 550 563 
L 550 2150 
Q 550 2387 499 2480 
Q 448 2573 326 2573 
Q 230 2573 122 2547 
L 122 2656 
Q 557 2778 1011 2944 
L 1062 2925 
L 1062 2451 
L 1075 2451 
Q 1363 2752 1584 2848 
Q 1805 2944 2054 2944 
Q 2560 2944 2733 2406 
Q 3232 2944 3776 2944 
Q 4518 2944 4518 1792 
L 4518 493 
Q 4518 282 4582 202 
Q 4646 122 4794 109 
L 4960 96 
L 4960 0 
z
" transform="scale(0.015625)"/>
       <path id="STIXGeneral-Regular-62" d="M 979 4358 
L 979 2406 
Q 1082 2650 1315 2797 
Q 1549 2944 1843 2944 
Q 2349 2944 2672 2541 
Q 2995 2138 2995 1536 
Q 2995 832 2566 384 
Q 2138 -64 1498 -64 
Q 1107 -64 774 67 
Q 442 198 442 358 
L 442 3622 
Q 442 3859 384 3926 
Q 326 3994 128 3994 
Q 83 3994 19 3981 
L 19 4090 
L 211 4147 
Q 864 4346 947 4371 
L 979 4358 
z
M 979 2035 
L 979 474 
Q 979 326 1161 233 
Q 1344 141 1600 141 
Q 1978 141 2195 416 
Q 2432 710 2432 1261 
Q 2432 1888 2182 2240 
Q 1971 2541 1613 2541 
Q 1357 2541 1168 2390 
Q 979 2240 979 2035 
z
" transform="scale(0.015625)"/>
       <path id="STIXGeneral-Regular-65" d="M 2611 1050 
L 2714 1005 
Q 2330 -64 1376 -64 
Q 813 -64 486 329 
Q 160 723 160 1389 
Q 160 2074 525 2509 
Q 890 2944 1485 2944 
Q 2061 2944 2374 2502 
Q 2560 2246 2592 1773 
L 621 1773 
Q 646 1370 700 1158 
Q 755 947 915 730 
Q 1184 378 1626 378 
Q 1939 378 2153 531 
Q 2368 685 2611 1050 
z
M 634 1978 
L 1939 1978 
Q 1882 2381 1750 2547 
Q 1619 2714 1312 2714 
Q 1043 2714 864 2525 
Q 685 2336 634 1978 
z
" transform="scale(0.015625)"/>
       <path id="STIXGeneral-Regular-72" d="M 1024 2931 
L 1024 2342 
Q 1267 2688 1430 2816 
Q 1594 2944 1792 2944 
Q 1958 2944 2051 2854 
Q 2144 2765 2144 2605 
Q 2144 2470 2077 2393 
Q 2010 2317 1894 2317 
Q 1773 2317 1638 2445 
Q 1536 2541 1472 2541 
Q 1338 2541 1181 2355 
Q 1024 2170 1024 2016 
L 1024 576 
Q 1024 301 1133 205 
Q 1242 109 1568 96 
L 1568 0 
L 32 0 
L 32 96 
Q 339 154 412 224 
Q 486 294 486 538 
L 486 2138 
Q 486 2349 438 2435 
Q 390 2522 269 2522 
Q 166 2522 45 2496 
L 45 2598 
Q 448 2726 992 2944 
L 1024 2931 
z
" transform="scale(0.015625)"/>
       <path id="STIXGeneral-Regular-20" transform="scale(0.015625)"/>
       <path id="STIXGeneral-Regular-6f" d="M 3008 1478 
Q 3008 806 2608 371 
Q 2208 -64 1568 -64 
Q 979 -64 582 368 
Q 186 800 186 1459 
Q 186 2125 582 2534 
Q 979 2944 1626 2944 
Q 2221 2944 2614 2537 
Q 3008 2131 3008 1478 
z
M 2432 1306 
Q 2432 2035 2112 2445 
Q 1856 2765 1504 2765 
Q 1171 2765 966 2493 
Q 762 2221 762 1747 
Q 762 928 1101 435 
Q 1318 115 1677 115 
Q 2029 115 2230 432 
Q 2432 749 2432 1306 
z
" transform="scale(0.015625)"/>
       <path id="STIXGeneral-Regular-66" d="M 134 2880 
L 659 2880 
Q 666 3264 710 3478 
Q 755 3693 883 3910 
Q 1152 4371 1786 4371 
Q 2074 4371 2262 4259 
Q 2451 4147 2451 3974 
Q 2451 3866 2374 3789 
Q 2298 3712 2182 3712 
Q 2029 3712 1894 3942 
Q 1741 4192 1555 4192 
Q 1197 4192 1197 3622 
L 1197 2880 
L 1978 2880 
L 1978 2675 
L 1197 2675 
L 1197 666 
Q 1197 307 1299 208 
Q 1402 109 1792 96 
L 1792 0 
L 128 0 
L 128 96 
Q 474 115 566 214 
Q 659 314 659 666 
L 659 2675 
L 134 2675 
L 134 2880 
z
" transform="scale(0.015625)"/>
       <path id="STIXGeneral-Regular-42" d="M 2701 2234 
L 2701 2227 
Q 3181 2150 3482 1875 
Q 3795 1594 3795 1139 
Q 3795 608 3379 304 
Q 2963 0 2266 0 
L 109 0 
L 109 122 
Q 486 134 604 246 
Q 723 358 723 723 
L 723 3520 
Q 723 3891 614 3990 
Q 506 4090 109 4115 
L 109 4237 
L 1901 4237 
Q 2726 4237 3152 3958 
Q 3578 3680 3578 3168 
Q 3578 2733 3315 2502 
Q 3130 2342 2701 2234 
z
M 1376 2342 
L 1965 2342 
Q 2925 2342 2925 3136 
Q 2925 3546 2640 3773 
Q 2355 4000 1792 4000 
L 1530 4000 
Q 1376 4000 1376 3795 
L 1376 2342 
z
M 1376 2086 
L 1376 525 
Q 1376 365 1462 301 
Q 1549 237 1773 237 
Q 2208 237 2413 285 
Q 2618 333 2816 512 
Q 3059 723 3059 1146 
Q 3059 1632 2758 1830 
Q 2688 1882 2617 1917 
Q 2547 1952 2492 1974 
Q 2438 1997 2348 2016 
Q 2259 2035 2211 2044 
Q 2163 2054 2041 2060 
Q 1920 2067 1862 2070 
Q 1805 2074 1635 2080 
Q 1466 2086 1376 2086 
z
" transform="scale(0.015625)"/>
       <path id="STIXGeneral-Regular-61" d="M 2829 422 
L 2829 243 
Q 2586 -64 2253 -64 
Q 1888 -64 1843 403 
L 1837 403 
Q 1427 -64 909 -64 
Q 608 -64 422 112 
Q 237 288 237 602 
Q 237 1050 685 1350 
Q 992 1555 1837 1869 
L 1837 2214 
Q 1837 2502 1699 2646 
Q 1562 2790 1338 2790 
Q 1146 2790 1018 2697 
Q 890 2605 890 2477 
Q 890 2419 909 2348 
Q 928 2278 928 2208 
Q 928 2112 841 2029 
Q 755 1946 634 1946 
Q 525 1946 441 2029 
Q 358 2112 358 2240 
Q 358 2547 685 2752 
Q 986 2944 1421 2944 
Q 1939 2944 2176 2656 
Q 2291 2522 2323 2384 
Q 2355 2246 2355 1946 
L 2355 723 
Q 2355 301 2554 301 
Q 2682 301 2829 422 
z
M 1837 813 
L 1837 1715 
Q 1248 1510 1018 1293 
Q 800 1094 800 800 
Q 800 557 921 432 
Q 1043 307 1242 307 
Q 1453 307 1613 410 
Q 1747 506 1792 589 
Q 1837 672 1837 813 
z
" transform="scale(0.015625)"/>
       <path id="STIXGeneral-Regular-64" d="M 3142 269 
L 2202 -64 
L 2176 -45 
L 2176 365 
Q 1869 -64 1357 -64 
Q 826 -64 499 317 
Q 173 698 173 1312 
Q 173 1990 563 2467 
Q 954 2944 1504 2944 
Q 1850 2944 2176 2669 
L 2176 3667 
Q 2176 3866 2118 3930 
Q 2061 3994 1882 3994 
Q 1792 3994 1741 3987 
L 1741 4090 
Q 2323 4243 2682 4371 
L 2714 4358 
L 2714 730 
Q 2714 506 2768 435 
Q 2822 365 2995 365 
Q 3034 365 3142 371 
L 3142 269 
z
M 2176 653 
L 2176 2125 
Q 2176 2381 1981 2573 
Q 1786 2765 1523 2765 
Q 1158 2765 940 2438 
Q 723 2112 723 1568 
Q 723 979 963 624 
Q 1203 269 1606 269 
Q 1907 269 2080 474 
Q 2176 582 2176 653 
z
" transform="scale(0.015625)"/>
       <path id="STIXGeneral-Regular-73" d="M 998 1926 
L 1664 1523 
Q 1984 1331 2105 1164 
Q 2227 998 2227 736 
Q 2227 416 1961 176 
Q 1696 -64 1331 -64 
Q 1030 -64 864 -6 
Q 691 51 570 51 
Q 461 51 416 -26 
L 333 -26 
L 333 979 
L 435 979 
Q 538 512 730 294 
Q 922 77 1248 77 
Q 1485 77 1632 211 
Q 1779 346 1779 550 
Q 1779 845 1440 1030 
L 1094 1222 
Q 326 1651 326 2150 
Q 326 2522 566 2730 
Q 806 2938 1210 2938 
Q 1491 2938 1638 2867 
Q 1754 2816 1818 2816 
Q 1862 2816 1920 2880 
L 1990 2880 
L 2022 2010 
L 1926 2010 
Q 1818 2445 1654 2621 
Q 1491 2797 1203 2797 
Q 986 2797 854 2688 
Q 723 2579 723 2362 
Q 723 2253 796 2128 
Q 870 2003 998 1926 
z
" transform="scale(0.015625)"/>
       <path id="STIXGeneral-Italic-4e" d="M 4653 4179 
L 4653 4077 
Q 4480 4038 4413 4016 
Q 4346 3994 4266 3882 
Q 4186 3770 4144 3635 
Q 4102 3501 4000 3149 
L 3066 -96 
L 2950 -96 
L 1478 3424 
L 749 723 
Q 691 525 691 378 
Q 691 243 790 182 
Q 890 122 1139 102 
L 1139 0 
L -128 0 
L -128 102 
Q 147 141 262 304 
Q 378 467 550 1075 
L 1299 3731 
Q 1152 4077 749 4077 
L 749 4179 
L 1773 4179 
L 3098 986 
L 3776 3469 
Q 3827 3648 3827 3750 
Q 3827 3923 3740 3987 
Q 3654 4051 3386 4077 
L 3386 4179 
L 4653 4179 
z
" transform="scale(0.015625)"/>
      </defs>
      <use xlink:href="#STIXGeneral-Regular-4e" transform="translate(0 0.703125)"/>
      <use xlink:href="#STIXGeneral-Regular-75" transform="translate(72.199982 0.703125)"/>
      <use xlink:href="#STIXGeneral-Regular-6d" transform="translate(122.199966 0.703125)"/>
      <use xlink:href="#STIXGeneral-Regular-62" transform="translate(199.999954 0.703125)"/>
      <use xlink:href="#STIXGeneral-Regular-65" transform="translate(249.999939 0.703125)"/>
      <use xlink:href="#STIXGeneral-Regular-72" transform="translate(294.399933 0.703125)"/>
      <use xlink:href="#STIXGeneral-Regular-20" transform="translate(327.699921 0.703125)"/>
      <use xlink:href="#STIXGeneral-Regular-6f" transform="translate(352.699905 0.703125)"/>
      <use xlink:href="#STIXGeneral-Regular-66" transform="translate(402.69989 0.703125)"/>
      <use xlink:href="#STIXGeneral-Regular-20" transform="translate(435.999878 0.703125)"/>
      <use xlink:href="#STIXGeneral-Regular-42" transform="translate(460.999863 0.703125)"/>
      <use xlink:href="#STIXGeneral-Regular-65" transform="translate(527.69986 0.703125)"/>
      <use xlink:href="#STIXGeneral-Regular-61" transform="translate(572.099854 0.703125)"/>
      <use xlink:href="#STIXGeneral-Regular-64" transform="translate(616.499847 0.703125)"/>
      <use xlink:href="#STIXGeneral-Regular-73" transform="translate(666.499832 0.703125)"/>
      <use xlink:href="#STIXGeneral-Regular-20" transform="translate(705.399826 0.703125)"/>
      <use xlink:href="#STIXGeneral-Italic-4e" transform="translate(730.399811 0.703125)"/>
     </g>
    </g>
   </g>
   <g id="matplotlib.axis_2">
    <g id="ytick_1">
     <g id="line2d_11">
      <defs>
       <path id="m84d0ca4f80" d="M 0 0 
L 6 0 
" style="stroke: #000000; stroke-width: 0.5"/>
      </defs>
      <g>
       <use xlink:href="#m84d0ca4f80" x="72.831981" y="195.766512" style="stroke: #000000; stroke-width: 0.5"/>
      </g>
     </g>
     <g id="line2d_12">
      <defs>
       <path id="mef7fa1c9e7" d="M 0 0 
L -6 0 
" style="stroke: #000000; stroke-width: 0.5"/>
      </defs>
      <g>
       <use xlink:href="#mef7fa1c9e7" x="277.2" y="195.766512" style="stroke: #000000; stroke-width: 0.5"/>
      </g>
     </g>
     <g id="text_6">
      <!-- $\mathdefault{10^{0}}$ -->
      <g transform="translate(47.951981 200.547294) scale(0.14 -0.14)">
       <use xlink:href="#STIXGeneral-Regular-31" transform="translate(0 0.684375)"/>
       <use xlink:href="#STIXGeneral-Regular-30" transform="translate(49.999985 0.684375)"/>
       <use xlink:href="#STIXGeneral-Regular-30" transform="translate(101.574969 36.684375) scale(0.7)"/>
      </g>
     </g>
    </g>
    <g id="ytick_2">
     <g id="line2d_13">
      <defs>
       <path id="m59ec41f5ea" d="M 0 0 
L 3 0 
" style="stroke: #000000; stroke-width: 0.5"/>
      </defs>
      <g>
       <use xlink:href="#m59ec41f5ea" x="72.831981" y="132.184396" style="stroke: #000000; stroke-width: 0.5"/>
      </g>
     </g>
     <g id="line2d_14">
      <defs>
       <path id="m4740a04778" d="M 0 0 
L -3 0 
" style="stroke: #000000; stroke-width: 0.5"/>
      </defs>
      <g>
       <use xlink:href="#m4740a04778" x="277.2" y="132.184396" style="stroke: #000000; stroke-width: 0.5"/>
      </g>
     </g>
     <g id="text_7">
      <!-- $\mathdefault{2\times10^{0}}$ -->
      <g transform="translate(28.071981 136.965177) scale(0.14 -0.14)">
       <use xlink:href="#STIXGeneral-Regular-32" transform="translate(0 0.684375)"/>
       <use xlink:href="#STIXGeneral-Regular-d7" transform="translate(64.439981 0.684375)"/>
       <use xlink:href="#STIXGeneral-Regular-31" transform="translate(142.879962 0.684375)"/>
       <use xlink:href="#STIXGeneral-Regular-30" transform="translate(192.879947 0.684375)"/>
       <use xlink:href="#STIXGeneral-Regular-30" transform="translate(244.454932 36.684375) scale(0.7)"/>
      </g>
     </g>
    </g>
    <g id="ytick_3">
     <g id="line2d_15">
      <g>
       <use xlink:href="#m59ec41f5ea" x="72.831981" y="94.991242" style="stroke: #000000; stroke-width: 0.5"/>
      </g>
     </g>
     <g id="line2d_16">
      <g>
       <use xlink:href="#m4740a04778" x="277.2" y="94.991242" style="stroke: #000000; stroke-width: 0.5"/>
      </g>
     </g>
     <g id="text_8">
      <!-- $\mathdefault{3\times10^{0}}$ -->
      <g transform="translate(28.071981 99.772024) scale(0.14 -0.14)">
       <use xlink:href="#STIXGeneral-Regular-33" transform="translate(0 0.684375)"/>
       <use xlink:href="#STIXGeneral-Regular-d7" transform="translate(64.439981 0.684375)"/>
       <use xlink:href="#STIXGeneral-Regular-31" transform="translate(142.879962 0.684375)"/>
       <use xlink:href="#STIXGeneral-Regular-30" transform="translate(192.879947 0.684375)"/>
       <use xlink:href="#STIXGeneral-Regular-30" transform="translate(244.454932 36.684375) scale(0.7)"/>
      </g>
     </g>
    </g>
    <g id="ytick_4">
     <g id="line2d_17">
      <g>
       <use xlink:href="#m59ec41f5ea" x="72.831981" y="68.60228" style="stroke: #000000; stroke-width: 0.5"/>
      </g>
     </g>
     <g id="line2d_18">
      <g>
       <use xlink:href="#m4740a04778" x="277.2" y="68.60228" style="stroke: #000000; stroke-width: 0.5"/>
      </g>
     </g>
     <g id="text_9">
      <!-- $\mathdefault{4\times10^{0}}$ -->
      <g transform="translate(28.071981 73.383061) scale(0.14 -0.14)">
       <use xlink:href="#STIXGeneral-Regular-34" transform="translate(0 0.684375)"/>
       <use xlink:href="#STIXGeneral-Regular-d7" transform="translate(64.439981 0.684375)"/>
       <use xlink:href="#STIXGeneral-Regular-31" transform="translate(142.879962 0.684375)"/>
       <use xlink:href="#STIXGeneral-Regular-30" transform="translate(192.879947 0.684375)"/>
       <use xlink:href="#STIXGeneral-Regular-30" transform="translate(244.454932 36.684375) scale(0.7)"/>
      </g>
     </g>
    </g>
    <g id="ytick_5">
     <g id="line2d_19">
      <g>
       <use xlink:href="#m59ec41f5ea" x="72.831981" y="48.13341" style="stroke: #000000; stroke-width: 0.5"/>
      </g>
     </g>
     <g id="line2d_20">
      <g>
       <use xlink:href="#m4740a04778" x="277.2" y="48.13341" style="stroke: #000000; stroke-width: 0.5"/>
      </g>
     </g>
    </g>
    <g id="ytick_6">
     <g id="line2d_21">
      <g>
       <use xlink:href="#m59ec41f5ea" x="72.831981" y="31.409126" style="stroke: #000000; stroke-width: 0.5"/>
      </g>
     </g>
     <g id="line2d_22">
      <g>
       <use xlink:href="#m4740a04778" x="277.2" y="31.409126" style="stroke: #000000; stroke-width: 0.5"/>
      </g>
     </g>
     <g id="text_10">
      <!-- $\mathdefault{6\times10^{0}}$ -->
      <g transform="translate(28.071981 36.189907) scale(0.14 -0.14)">
       <use xlink:href="#STIXGeneral-Regular-36" transform="translate(0 0.684375)"/>
       <use xlink:href="#STIXGeneral-Regular-d7" transform="translate(64.439981 0.684375)"/>
       <use xlink:href="#STIXGeneral-Regular-31" transform="translate(142.879962 0.684375)"/>
       <use xlink:href="#STIXGeneral-Regular-30" transform="translate(192.879947 0.684375)"/>
       <use xlink:href="#STIXGeneral-Regular-30" transform="translate(244.454932 36.684375) scale(0.7)"/>
      </g>
     </g>
    </g>
    <g id="ytick_7">
     <g id="line2d_23">
      <g>
       <use xlink:href="#m59ec41f5ea" x="72.831981" y="17.268945" style="stroke: #000000; stroke-width: 0.5"/>
      </g>
     </g>
     <g id="line2d_24">
      <g>
       <use xlink:href="#m4740a04778" x="277.2" y="17.268945" style="stroke: #000000; stroke-width: 0.5"/>
      </g>
     </g>
    </g>
    <g id="text_11">
     <!-- Radius of Gyration ($\sigma$) -->
     <g transform="translate(20.991981 166.189228) rotate(-90) scale(0.14 -0.14)">
      <defs>
       <path id="STIXGeneral-Regular-52" d="M 4224 0 
L 3187 0 
L 1664 1971 
L 1306 1958 
L 1306 717 
Q 1306 352 1405 249 
Q 1504 147 1875 122 
L 1875 0 
L 109 0 
L 109 122 
Q 474 154 563 262 
Q 653 371 653 794 
L 653 3526 
Q 653 3885 563 3987 
Q 474 4090 109 4115 
L 109 4237 
L 1850 4237 
Q 2726 4237 3187 3859 
Q 3501 3603 3501 3091 
Q 3501 2221 2342 2042 
L 3622 422 
Q 3757 256 3878 198 
Q 4000 141 4224 122 
L 4224 0 
z
M 1306 3731 
L 1306 2195 
Q 1766 2202 1990 2246 
Q 2214 2291 2438 2413 
Q 2803 2618 2803 3142 
Q 2803 4000 1632 4000 
Q 1459 4000 1382 3945 
Q 1306 3891 1306 3731 
z
" transform="scale(0.015625)"/>
       <path id="STIXGeneral-Regular-69" d="M 1152 4045 
Q 1152 3904 1056 3811 
Q 960 3718 819 3718 
Q 685 3718 592 3811 
Q 499 3904 499 4045 
Q 499 4179 595 4275 
Q 691 4371 826 4371 
Q 966 4371 1059 4275 
Q 1152 4179 1152 4045 
z
M 1619 0 
L 102 0 
L 102 96 
Q 435 115 521 211 
Q 608 307 608 666 
L 608 2118 
Q 608 2342 563 2432 
Q 518 2522 397 2522 
Q 243 2522 128 2490 
L 128 2592 
L 1120 2944 
L 1146 2918 
L 1146 672 
Q 1146 314 1226 218 
Q 1306 122 1619 96 
L 1619 0 
z
" transform="scale(0.015625)"/>
       <path id="STIXGeneral-Regular-47" d="M 4538 2266 
L 4538 2150 
Q 4256 2125 4173 2035 
Q 4090 1946 4090 1638 
L 4090 358 
Q 3539 -90 2464 -90 
Q 1965 -90 1507 89 
Q 1050 269 736 595 
Q 205 1152 205 2093 
Q 205 3155 890 3776 
Q 1491 4326 2419 4326 
Q 2829 4326 3270 4179 
Q 3443 4115 3552 4115 
Q 3654 4115 3731 4176 
Q 3808 4237 3840 4326 
L 3981 4326 
L 4032 2976 
L 3885 2976 
Q 3680 3475 3430 3718 
Q 3059 4070 2496 4070 
Q 1856 4070 1427 3629 
Q 934 3136 934 2074 
Q 934 1190 1395 678 
Q 1856 166 2618 166 
Q 2982 166 3225 281 
Q 3469 397 3469 557 
L 3469 1562 
Q 3469 1933 3376 2025 
Q 3283 2118 2899 2150 
L 2899 2266 
L 4538 2266 
z
" transform="scale(0.015625)"/>
       <path id="STIXGeneral-Regular-79" d="M 3040 2880 
L 3040 2784 
Q 2925 2771 2854 2700 
Q 2784 2630 2720 2458 
L 1760 -160 
Q 1510 -838 1257 -1116 
Q 1005 -1395 640 -1395 
Q 435 -1395 313 -1289 
Q 192 -1184 192 -1024 
Q 192 -902 272 -816 
Q 352 -730 467 -730 
Q 653 -730 800 -813 
Q 883 -858 966 -858 
Q 1101 -858 1286 -576 
Q 1376 -448 1459 -211 
Q 1542 26 1542 115 
Q 1542 198 1274 762 
L 429 2566 
Q 346 2752 90 2790 
L 90 2880 
L 1402 2880 
L 1402 2784 
Q 1197 2778 1117 2739 
Q 1037 2701 1037 2611 
Q 1037 2541 1120 2349 
L 1837 749 
L 2458 2515 
Q 2483 2573 2483 2630 
Q 2483 2784 2189 2784 
L 2189 2880 
L 3040 2880 
z
" transform="scale(0.015625)"/>
       <path id="STIXGeneral-Regular-74" d="M 1702 493 
L 1786 422 
Q 1478 -64 1011 -64 
Q 448 -64 448 749 
L 448 2675 
L 109 2675 
Q 83 2694 83 2720 
Q 83 2771 192 2842 
Q 435 2982 813 3526 
Q 826 3546 874 3606 
Q 922 3667 941 3706 
Q 986 3706 986 3622 
L 986 2880 
L 1632 2880 
L 1632 2675 
L 986 2675 
L 986 845 
Q 986 538 1062 403 
Q 1139 269 1318 269 
Q 1510 269 1702 493 
z
" transform="scale(0.015625)"/>
       <path id="STIXGeneral-Regular-6e" d="M 3104 0 
L 1773 0 
L 1779 96 
Q 2016 115 2096 233 
Q 2176 352 2176 672 
L 2176 1946 
Q 2176 2592 1709 2592 
Q 1549 2592 1408 2515 
Q 1267 2438 1050 2227 
L 1050 461 
Q 1050 269 1136 192 
Q 1222 115 1466 96 
L 1466 0 
L 115 0 
L 115 96 
Q 358 115 435 214 
Q 512 314 512 602 
L 512 2157 
Q 512 2394 467 2483 
Q 422 2573 288 2573 
Q 160 2573 102 2547 
L 102 2656 
Q 550 2784 979 2944 
L 1030 2925 
L 1030 2426 
L 1037 2426 
Q 1491 2944 1958 2944 
Q 2323 2944 2518 2688 
Q 2714 2432 2714 1958 
L 2714 544 
Q 2714 288 2790 205 
Q 2867 122 3104 96 
L 3104 0 
z
" transform="scale(0.015625)"/>
       <path id="STIXGeneral-Regular-28" d="M 1946 -1030 
L 1869 -1133 
Q 1126 -710 716 32 
Q 307 774 307 1613 
Q 307 3386 1888 4326 
L 1946 4224 
Q 1293 3667 1075 3126 
Q 858 2586 858 1632 
Q 858 685 1082 96 
Q 1306 -493 1946 -1030 
z
" transform="scale(0.015625)"/>
       <path id="STIXGeneral-Italic-3c3" d="M 3398 2739 
L 3283 2266 
L 2195 2266 
Q 2291 2112 2457 1981 
Q 2624 1850 2717 1725 
Q 2810 1600 2810 1389 
Q 2810 851 2288 390 
Q 1766 -70 1107 -70 
Q 659 -70 416 170 
Q 173 410 173 832 
Q 173 1274 409 1706 
Q 646 2138 1113 2438 
Q 1581 2739 2157 2739 
L 3398 2739 
z
M 2272 1414 
Q 2272 1709 2166 1939 
Q 2061 2170 1901 2266 
Q 1530 2266 1120 1770 
Q 710 1274 710 640 
Q 710 358 844 211 
Q 979 64 1210 64 
Q 1638 64 1955 525 
Q 2272 986 2272 1414 
z
" transform="scale(0.015625)"/>
       <path id="STIXGeneral-Regular-29" d="M 186 4224 
L 262 4326 
Q 992 3891 1408 3148 
Q 1824 2406 1824 1581 
Q 1824 -166 243 -1133 
L 186 -1030 
Q 845 -486 1059 54 
Q 1274 595 1274 1562 
Q 1274 2534 1059 3120 
Q 845 3706 186 4224 
z
" transform="scale(0.015625)"/>
      </defs>
      <use xlink:href="#STIXGeneral-Regular-52" transform="translate(0 0.703125)"/>
      <use xlink:href="#STIXGeneral-Regular-61" transform="translate(66.699997 0.703125)"/>
      <use xlink:href="#STIXGeneral-Regular-64" transform="translate(111.099991 0.703125)"/>
      <use xlink:href="#STIXGeneral-Regular-69" transform="translate(161.099976 0.703125)"/>
      <use xlink:href="#STIXGeneral-Regular-75" transform="translate(188.899963 0.703125)"/>
      <use xlink:href="#STIXGeneral-Regular-73" transform="translate(238.899948 0.703125)"/>
      <use xlink:href="#STIXGeneral-Regular-20" transform="translate(277.799942 0.703125)"/>
      <use xlink:href="#STIXGeneral-Regular-6f" transform="translate(302.799927 0.703125)"/>
      <use xlink:href="#STIXGeneral-Regular-66" transform="translate(352.799911 0.703125)"/>
      <use xlink:href="#STIXGeneral-Regular-20" transform="translate(386.099899 0.703125)"/>
      <use xlink:href="#STIXGeneral-Regular-47" transform="translate(411.099884 0.703125)"/>
      <use xlink:href="#STIXGeneral-Regular-79" transform="translate(483.299866 0.703125)"/>
      <use xlink:href="#STIXGeneral-Regular-72" transform="translate(533.29985 0.703125)"/>
      <use xlink:href="#STIXGeneral-Regular-61" transform="translate(566.599838 0.703125)"/>
      <use xlink:href="#STIXGeneral-Regular-74" transform="translate(610.999832 0.703125)"/>
      <use xlink:href="#STIXGeneral-Regular-69" transform="translate(638.79982 0.703125)"/>
      <use xlink:href="#STIXGeneral-Regular-6f" transform="translate(666.599808 0.703125)"/>
      <use xlink:href="#STIXGeneral-Regular-6e" transform="translate(716.599792 0.703125)"/>
      <use xlink:href="#STIXGeneral-Regular-20" transform="translate(766.599777 0.703125)"/>
      <use xlink:href="#STIXGeneral-Regular-28" transform="translate(791.599762 0.703125)"/>
      <use xlink:href="#STIXGeneral-Italic-3c3" transform="translate(824.89975 0.703125)"/>
      <use xlink:href="#STIXGeneral-Regular-29" transform="translate(874.699738 0.703125)"/>
     </g>
    </g>
   </g>
   <g id="LineCollection_1">
    <path d="M 82.121437 135.329375 
L 82.121437 108.374 
" clip-path="url(#p5d9b6e2106)" style="fill: none; stroke: #332288; stroke-width: 1.5"/>
    <path d="M 112.026803 121.759982 
L 112.026803 93.045372 
" clip-path="url(#p5d9b6e2106)" style="fill: none; stroke: #332288; stroke-width: 1.5"/>
    <path d="M 175.015991 94.772783 
L 175.015991 64.86623 
" clip-path="url(#p5d9b6e2106)" style="fill: none; stroke: #332288; stroke-width: 1.5"/>
    <path d="M 267.910545 69.047051 
L 267.910545 17.282657 
" clip-path="url(#p5d9b6e2106)" style="fill: none; stroke: #332288; stroke-width: 1.5"/>
   </g>
   <g id="line2d_25">
    <defs>
     <path id="m2a9763cad2" d="M 2 0 
L -2 -0 
" style="stroke: #332288"/>
    </defs>
    <g clip-path="url(#p5d9b6e2106)">
     <use xlink:href="#m2a9763cad2" x="82.121437" y="135.329375" style="fill: #332288; stroke: #332288"/>
     <use xlink:href="#m2a9763cad2" x="112.026803" y="121.759982" style="fill: #332288; stroke: #332288"/>
     <use xlink:href="#m2a9763cad2" x="175.015991" y="94.772783" style="fill: #332288; stroke: #332288"/>
     <use xlink:href="#m2a9763cad2" x="267.910545" y="69.047051" style="fill: #332288; stroke: #332288"/>
    </g>
   </g>
   <g id="line2d_26">
    <g clip-path="url(#p5d9b6e2106)">
     <use xlink:href="#m2a9763cad2" x="82.121437" y="108.374" style="fill: #332288; stroke: #332288"/>
     <use xlink:href="#m2a9763cad2" x="112.026803" y="93.045372" style="fill: #332288; stroke: #332288"/>
     <use xlink:href="#m2a9763cad2" x="175.015991" y="64.86623" style="fill: #332288; stroke: #332288"/>
     <use xlink:href="#m2a9763cad2" x="267.910545" y="17.282657" style="fill: #332288; stroke: #332288"/>
    </g>
   </g>
   <g id="line2d_27">
    <path d="M 82.121437 120.124212 
L 112.026803 106.960882 
L 175.015991 79.235173 
L 267.910545 38.346135 
" clip-path="url(#p5d9b6e2106)" style="fill: none; stroke-dasharray: 1.5,2.475; stroke-dashoffset: 0; stroke: #000000; stroke-width: 1.5"/>
   </g>
   <g id="LineCollection_2">
    <path d="M 82.121437 175.218185 
L 82.121437 148.212975 
" clip-path="url(#p5d9b6e2106)" style="fill: none; stroke: #cc6677; stroke-width: 1.5"/>
    <path d="M 112.026803 164.208095 
L 112.026803 145.096024 
" clip-path="url(#p5d9b6e2106)" style="fill: none; stroke: #cc6677; stroke-width: 1.5"/>
    <path d="M 175.015991 149.680828 
L 175.015991 137.541456 
" clip-path="url(#p5d9b6e2106)" style="fill: none; stroke: #cc6677; stroke-width: 1.5"/>
    <path d="M 267.910545 187.975798 
L 267.910545 73.91278 
" clip-path="url(#p5d9b6e2106)" style="fill: none; stroke: #cc6677; stroke-width: 1.5"/>
   </g>
   <g id="line2d_28">
    <defs>
     <path id="mc3d4351caa" d="M 2 0 
L -2 -0 
" style="stroke: #cc6677"/>
    </defs>
    <g clip-path="url(#p5d9b6e2106)">
     <use xlink:href="#mc3d4351caa" x="82.121437" y="175.218185" style="fill: #cc6677; stroke: #cc6677"/>
     <use xlink:href="#mc3d4351caa" x="112.026803" y="164.208095" style="fill: #cc6677; stroke: #cc6677"/>
     <use xlink:href="#mc3d4351caa" x="175.015991" y="149.680828" style="fill: #cc6677; stroke: #cc6677"/>
     <use xlink:href="#mc3d4351caa" x="267.910545" y="187.975798" style="fill: #cc6677; stroke: #cc6677"/>
    </g>
   </g>
   <g id="line2d_29">
    <g clip-path="url(#p5d9b6e2106)">
     <use xlink:href="#mc3d4351caa" x="82.121437" y="148.212975" style="fill: #cc6677; stroke: #cc6677"/>
     <use xlink:href="#mc3d4351caa" x="112.026803" y="145.096024" style="fill: #cc6677; stroke: #cc6677"/>
     <use xlink:href="#mc3d4351caa" x="175.015991" y="137.541456" style="fill: #cc6677; stroke: #cc6677"/>
     <use xlink:href="#mc3d4351caa" x="267.910545" y="73.91278" style="fill: #cc6677; stroke: #cc6677"/>
    </g>
   </g>
   <g id="line2d_30">
    <path d="M 82.121437 160.458986 
L 112.026803 154.855039 
L 175.015991 143.051537 
L 267.910545 125.644087 
" clip-path="url(#p5d9b6e2106)" style="fill: none; stroke-dasharray: 1.5,2.475; stroke-dashoffset: 0; stroke: #808080; stroke-width: 1.5"/>
   </g>
   <g id="line2d_31">
    <defs>
     <path id="m32c76ba669" d="M 0 1.5 
C 0.397805 1.5 0.77937 1.341951 1.06066 1.06066 
C 1.341951 0.77937 1.5 0.397805 1.5 0 
C 1.5 -0.397805 1.341951 -0.77937 1.06066 -1.06066 
C 0.77937 -1.341951 0.397805 -1.5 0 -1.5 
C -0.397805 -1.5 -0.77937 -1.341951 -1.06066 -1.06066 
C -1.341951 -0.77937 -1.5 -0.397805 -1.5 0 
C -1.5 0.397805 -1.341951 0.77937 -1.06066 1.06066 
C -0.77937 1.341951 -0.397805 1.5 0 1.5 
z
" style="stroke: #332288"/>
    </defs>
    <g clip-path="url(#p5d9b6e2106)">
     <use xlink:href="#m32c76ba669" x="82.121437" y="120.865102" style="fill: #332288; stroke: #332288"/>
     <use xlink:href="#m32c76ba669" x="112.026803" y="106.283649" style="fill: #332288; stroke: #332288"/>
     <use xlink:href="#m32c76ba669" x="175.015991" y="78.606064" style="fill: #332288; stroke: #332288"/>
     <use xlink:href="#m32c76ba669" x="267.910545" y="39.560872" style="fill: #332288; stroke: #332288"/>
    </g>
   </g>
   <g id="line2d_32">
    <defs>
     <path id="m7c1da2024a" d="M 0 1.5 
C 0.397805 1.5 0.77937 1.341951 1.06066 1.06066 
C 1.341951 0.77937 1.5 0.397805 1.5 0 
C 1.5 -0.397805 1.341951 -0.77937 1.06066 -1.06066 
C 0.77937 -1.341951 0.397805 -1.5 0 -1.5 
C -0.397805 -1.5 -0.77937 -1.341951 -1.06066 -1.06066 
C -1.341951 -0.77937 -1.5 -0.397805 -1.5 0 
C -1.5 0.397805 -1.341951 0.77937 -1.06066 1.06066 
C -0.77937 1.341951 -0.397805 1.5 0 1.5 
z
" style="stroke: #cc6677"/>
    </defs>
    <g clip-path="url(#p5d9b6e2106)">
     <use xlink:href="#m7c1da2024a" x="82.121437" y="160.725356" style="fill: #cc6677; stroke: #cc6677"/>
     <use xlink:href="#m7c1da2024a" x="112.026803" y="154.155202" style="fill: #cc6677; stroke: #cc6677"/>
     <use xlink:href="#m7c1da2024a" x="175.015991" y="143.410475" style="fill: #cc6677; stroke: #cc6677"/>
     <use xlink:href="#m7c1da2024a" x="267.910545" y="114.251808" style="fill: #cc6677; stroke: #cc6677"/>
    </g>
   </g>
   <g id="patch_3">
    <path d="M 72.831981 196.510455 
L 72.831981 8.748 
" style="fill: none; stroke: #000000; stroke-width: 0.8; stroke-linejoin: miter; stroke-linecap: square"/>
   </g>
   <g id="patch_4">
    <path d="M 277.2 196.510455 
L 277.2 8.748 
" style="fill: none; stroke: #000000; stroke-width: 0.8; stroke-linejoin: miter; stroke-linecap: square"/>
   </g>
   <g id="patch_5">
    <path d="M 72.831981 196.510455 
L 277.2 196.510455 
" style="fill: none; stroke: #000000; stroke-width: 0.8; stroke-linejoin: miter; stroke-linecap: square"/>
   </g>
   <g id="patch_6">
    <path d="M 72.831981 8.748 
L 277.2 8.748 
" style="fill: none; stroke: #000000; stroke-width: 0.8; stroke-linejoin: miter; stroke-linecap: square"/>
   </g>
   <g id="legend_1">
    <g id="line2d_33">
     <path d="M 81.831981 21.248 
L 91.831981 21.248 
L 101.831981 21.248 
" style="fill: none; stroke-dasharray: 1.5,2.475; stroke-dashoffset: 0; stroke: #000000; stroke-width: 1.5"/>
    </g>
    <g id="text_12">
     <!-- $R_g = aN^m$;	 $m=0.6 \pm 0.2$ -->
     <g transform="translate(109.831981 24.748) scale(0.1 -0.1)">
      <defs>
       <path id="STIXGeneral-Italic-52" d="M 845 4179 
L 2458 4179 
Q 3078 4179 3420 3936 
Q 3763 3693 3763 3277 
Q 3763 2778 3341 2458 
Q 3091 2266 2502 2131 
L 3072 627 
Q 3181 333 3299 217 
Q 3418 102 3629 102 
L 3629 0 
L 2688 0 
L 1901 2074 
L 1478 2106 
L 1126 806 
Q 1043 512 1043 403 
Q 1043 256 1126 192 
Q 1210 128 1472 102 
L 1472 0 
L -83 0 
L -83 102 
Q 173 134 278 243 
Q 384 352 461 646 
L 1222 3405 
Q 1299 3699 1299 3808 
Q 1299 3923 1210 3987 
Q 1133 4038 845 4077 
L 845 4179 
z
M 1958 3795 
L 1555 2342 
Q 1754 2310 1882 2310 
Q 2451 2310 2771 2566 
Q 3091 2822 3091 3270 
Q 3091 3603 2892 3795 
Q 2694 3987 2323 3987 
Q 2010 3987 1958 3795 
z
" transform="scale(0.015625)"/>
       <path id="STIXGeneral-Italic-67" d="M 3014 2342 
L 2701 2342 
Q 2758 2227 2758 2016 
Q 2758 1613 2390 1289 
Q 2022 966 1574 966 
Q 1459 966 1376 986 
Q 1357 992 1331 992 
Q 1248 992 1174 909 
Q 1101 826 1101 730 
Q 1101 576 1555 461 
Q 2464 243 2464 -352 
Q 2464 -781 2105 -1049 
Q 1747 -1318 1120 -1318 
Q 621 -1318 336 -1142 
Q 51 -966 51 -627 
Q 51 -378 195 -202 
Q 339 -26 800 250 
Q 627 352 627 499 
Q 627 806 1120 1037 
Q 614 1216 614 1728 
Q 614 2202 1004 2512 
Q 1395 2822 1901 2822 
Q 2272 2822 2528 2643 
Q 2598 2592 2630 2592 
L 3014 2592 
L 3014 2342 
z
M 2253 2227 
Q 2253 2477 2166 2579 
Q 2080 2682 1894 2682 
Q 1587 2682 1350 2362 
Q 1114 2042 1114 1581 
Q 1114 1357 1216 1229 
Q 1318 1101 1498 1101 
Q 1818 1101 2042 1478 
Q 2253 1837 2253 2227 
z
M 2080 -576 
Q 2080 -352 1878 -201 
Q 1677 -51 1165 109 
Q 1011 154 947 179 
Q 902 179 752 57 
Q 602 -64 531 -154 
Q 403 -314 403 -525 
Q 403 -1178 1216 -1178 
Q 1594 -1178 1837 -1002 
Q 2080 -826 2080 -576 
z
" transform="scale(0.015625)"/>
       <path id="STIXGeneral-Regular-3d" d="M 4077 2048 
L 307 2048 
L 307 2470 
L 4077 2470 
L 4077 2048 
z
M 4077 768 
L 307 768 
L 307 1190 
L 4077 1190 
L 4077 768 
z
" transform="scale(0.015625)"/>
       <path id="STIXGeneral-Italic-61" d="M 2963 710 
L 3046 640 
Q 2688 205 2518 70 
Q 2349 -64 2157 -64 
Q 1901 -64 1901 198 
Q 1901 358 2048 934 
Q 1690 397 1389 163 
Q 1088 -70 749 -70 
Q 467 -70 288 125 
Q 109 320 109 672 
Q 109 1158 387 1664 
Q 666 2170 1094 2496 
Q 1523 2822 1939 2822 
Q 2368 2822 2451 2451 
L 2522 2758 
L 2541 2778 
L 2931 2822 
L 2976 2803 
Q 2970 2778 2938 2669 
Q 2368 595 2368 346 
Q 2368 262 2458 262 
Q 2554 262 2790 525 
L 2963 710 
z
M 2336 2310 
Q 2336 2477 2240 2579 
Q 2144 2682 1978 2682 
Q 1542 2682 1139 2093 
Q 928 1779 787 1395 
Q 646 1011 646 717 
Q 646 243 1030 243 
Q 1408 243 1843 870 
Q 2336 1581 2336 2310 
z
" transform="scale(0.015625)"/>
       <path id="STIXGeneral-Italic-6d" d="M 4506 672 
L 4474 627 
Q 3981 -58 3552 -58 
Q 3296 -58 3296 237 
Q 3296 333 3379 659 
L 3750 2112 
Q 3795 2291 3795 2355 
Q 3795 2413 3756 2451 
Q 3718 2490 3667 2490 
Q 3366 2490 2829 1741 
Q 2592 1408 2457 1072 
Q 2323 736 2138 0 
L 1658 0 
L 1830 595 
Q 2266 2099 2266 2330 
Q 2266 2490 2125 2490 
Q 1965 2490 1702 2237 
Q 1440 1984 1171 1574 
Q 1011 1325 899 1043 
Q 787 762 557 0 
L 77 0 
L 352 922 
Q 704 2093 704 2381 
Q 704 2522 442 2522 
L 282 2522 
L 282 2624 
L 1318 2822 
L 1338 2810 
L 966 1472 
Q 1798 2822 2374 2822 
Q 2560 2822 2659 2720 
Q 2758 2618 2758 2438 
Q 2758 2195 2502 1466 
Q 2842 2003 3069 2275 
Q 3296 2547 3526 2694 
Q 3731 2822 3930 2822 
Q 4102 2822 4201 2710 
Q 4301 2598 4301 2419 
Q 4301 2336 4282 2240 
L 3846 634 
Q 3782 390 3782 346 
Q 3782 243 3859 243 
Q 4000 243 4275 582 
L 4410 749 
L 4506 672 
z
" transform="scale(0.015625)"/>
       <path id="STIXGeneral-Regular-3b" d="M 1116 2832 
Q 1222 2726 1222 2579 
Q 1222 2432 1116 2329 
Q 1011 2227 870 2227 
Q 723 2227 617 2332 
Q 512 2438 512 2579 
Q 512 2733 614 2835 
Q 717 2938 870 2938 
Q 1011 2938 1116 2832 
z
M 685 -902 
L 621 -781 
Q 1152 -435 1152 -102 
Q 1152 -70 1126 -41 
Q 1101 -13 1062 -13 
Q 1043 -13 979 -25 
Q 915 -38 883 -38 
Q 512 -38 512 294 
Q 512 448 621 550 
Q 730 653 890 653 
Q 1107 653 1254 496 
Q 1402 339 1402 83 
Q 1402 -218 1210 -480 
Q 1018 -742 685 -902 
z
" transform="scale(0.015625)"/>
       <path id="STIXGeneral-Regular-2e" d="M 1158 275 
Q 1158 134 1052 32 
Q 947 -70 800 -70 
Q 653 -70 550 32 
Q 448 134 448 281 
Q 448 429 553 534 
Q 659 640 806 640 
Q 947 640 1052 531 
Q 1158 422 1158 275 
z
" transform="scale(0.015625)"/>
       <path id="STIXGeneral-Regular-b1" d="M 4077 1549 
L 2400 1549 
L 2400 211 
L 1978 211 
L 1978 1549 
L 307 1549 
L 307 1971 
L 1978 1971 
L 1978 3213 
L 2400 3213 
L 2400 1971 
L 4077 1971 
L 4077 1549 
z
M 4077 -557 
L 307 -557 
L 307 -134 
L 4077 -134 
L 4077 -557 
z
" transform="scale(0.015625)"/>
      </defs>
      <use xlink:href="#STIXGeneral-Italic-52" transform="translate(0 0.59375)"/>
      <use xlink:href="#STIXGeneral-Italic-67" transform="translate(61.099991 -12.634375) scale(0.7)"/>
      <use xlink:href="#STIXGeneral-Regular-3d" transform="translate(114.949352 0.59375)"/>
      <use xlink:href="#STIXGeneral-Italic-61" transform="translate(197.889333 0.59375)"/>
      <use xlink:href="#STIXGeneral-Italic-4e" transform="translate(247.989323 0.59375)"/>
      <use xlink:href="#STIXGeneral-Italic-6d" transform="translate(325.315102 35.86875) scale(0.7)"/>
      <use xlink:href="#STIXGeneral-Regular-3b" transform="translate(380.264464 0.59375)"/>
      <use xlink:href="#STIXGeneral-Regular-20" transform="translate(408.064452 0.59375)"/>
      <use xlink:href="#STIXGeneral-Regular-20" transform="translate(433.064436 0.59375)"/>
      <use xlink:href="#STIXGeneral-Regular-20" transform="translate(458.064421 0.59375)"/>
      <use xlink:href="#STIXGeneral-Regular-20" transform="translate(483.064406 0.59375)"/>
      <use xlink:href="#STIXGeneral-Italic-6d" transform="translate(508.064391 0.59375)"/>
      <use xlink:href="#STIXGeneral-Regular-3d" transform="translate(594.704369 0.59375)"/>
      <use xlink:href="#STIXGeneral-Regular-30" transform="translate(677.64435 0.59375)"/>
      <use xlink:href="#STIXGeneral-Regular-2e" transform="translate(727.644334 0.59375)"/>
      <use xlink:href="#STIXGeneral-Regular-36" transform="translate(752.644319 0.59375)"/>
      <use xlink:href="#STIXGeneral-Regular-b1" transform="translate(817.0843 0.59375)"/>
      <use xlink:href="#STIXGeneral-Regular-30" transform="translate(900.024281 0.59375)"/>
      <use xlink:href="#STIXGeneral-Regular-2e" transform="translate(950.024266 0.59375)"/>
      <use xlink:href="#STIXGeneral-Regular-32" transform="translate(975.024251 0.59375)"/>
     </g>
    </g>
    <g id="line2d_34">
     <path d="M 81.831981 36.048 
L 91.831981 36.048 
L 101.831981 36.048 
" style="fill: none; stroke-dasharray: 1.5,2.475; stroke-dashoffset: 0; stroke: #808080; stroke-width: 1.5"/>
    </g>
    <g id="text_13">
     <!-- $R_g = aN^m$;	 $m=0.3 \pm 0.2$ -->
     <g transform="translate(109.831981 39.548) scale(0.1 -0.1)">
      <use xlink:href="#STIXGeneral-Italic-52" transform="translate(0 0.40625)"/>
      <use xlink:href="#STIXGeneral-Italic-67" transform="translate(61.099991 -12.821875) scale(0.7)"/>
      <use xlink:href="#STIXGeneral-Regular-3d" transform="translate(114.949352 0.40625)"/>
      <use xlink:href="#STIXGeneral-Italic-61" transform="translate(197.889333 0.40625)"/>
      <use xlink:href="#STIXGeneral-Italic-4e" transform="translate(247.989323 0.40625)"/>
      <use xlink:href="#STIXGeneral-Italic-6d" transform="translate(325.315102 35.68125) scale(0.7)"/>
      <use xlink:href="#STIXGeneral-Regular-3b" transform="translate(380.264464 0.40625)"/>
      <use xlink:href="#STIXGeneral-Regular-20" transform="translate(408.064452 0.40625)"/>
      <use xlink:href="#STIXGeneral-Regular-20" transform="translate(433.064436 0.40625)"/>
      <use xlink:href="#STIXGeneral-Regular-20" transform="translate(458.064421 0.40625)"/>
      <use xlink:href="#STIXGeneral-Regular-20" transform="translate(483.064406 0.40625)"/>
      <use xlink:href="#STIXGeneral-Italic-6d" transform="translate(508.064391 0.40625)"/>
      <use xlink:href="#STIXGeneral-Regular-3d" transform="translate(594.704369 0.40625)"/>
      <use xlink:href="#STIXGeneral-Regular-30" transform="translate(677.64435 0.40625)"/>
      <use xlink:href="#STIXGeneral-Regular-2e" transform="translate(727.644334 0.40625)"/>
      <use xlink:href="#STIXGeneral-Regular-33" transform="translate(752.644319 0.40625)"/>
      <use xlink:href="#STIXGeneral-Regular-b1" transform="translate(817.0843 0.40625)"/>
      <use xlink:href="#STIXGeneral-Regular-30" transform="translate(900.024281 0.40625)"/>
      <use xlink:href="#STIXGeneral-Regular-2e" transform="translate(950.024266 0.40625)"/>
      <use xlink:href="#STIXGeneral-Regular-32" transform="translate(975.024251 0.40625)"/>
     </g>
    </g>
    <g id="LineCollection_3">
     <path d="M 91.831981 55.848 
L 91.831981 45.848 
" style="fill: none; stroke: #332288; stroke-width: 1.5"/>
    </g>
    <g id="line2d_35">
     <g>
      <use xlink:href="#m2a9763cad2" x="91.831981" y="55.848" style="fill: #332288; stroke: #332288"/>
     </g>
    </g>
    <g id="line2d_36">
     <g>
      <use xlink:href="#m2a9763cad2" x="91.831981" y="45.848" style="fill: #332288; stroke: #332288"/>
     </g>
    </g>
    <g id="line2d_37"/>
    <g id="line2d_38">
     <g>
      <use xlink:href="#m32c76ba669" x="91.831981" y="50.848" style="fill: #332288; stroke: #332288"/>
     </g>
    </g>
    <g id="text_14">
     <!-- $r_c = 1.12246\sigma$ -->
     <g transform="translate(109.831981 54.348) scale(0.1 -0.1)">
      <defs>
       <path id="STIXGeneral-Italic-72" d="M 1126 1427 
L 1229 1651 
Q 1446 2131 1830 2534 
Q 2106 2822 2336 2822 
Q 2470 2822 2553 2732 
Q 2637 2643 2637 2496 
Q 2637 2349 2557 2249 
Q 2477 2150 2336 2150 
Q 2214 2150 2112 2317 
Q 2061 2406 2010 2406 
Q 1837 2406 1485 1805 
Q 1267 1434 1136 1104 
Q 1005 774 774 0 
L 288 0 
L 806 1869 
Q 909 2246 909 2394 
Q 909 2560 666 2560 
Q 614 2560 467 2541 
L 467 2650 
L 1459 2822 
L 1478 2810 
L 1126 1427 
z
" transform="scale(0.015625)"/>
       <path id="STIXGeneral-Italic-63" d="M 2240 685 
L 2342 621 
Q 2048 250 1769 90 
Q 1491 -70 1133 -70 
Q 678 -70 435 179 
Q 192 429 192 915 
Q 192 1344 409 1744 
Q 627 2144 979 2432 
Q 1472 2822 2048 2822 
Q 2342 2822 2531 2675 
Q 2720 2528 2720 2304 
Q 2720 2176 2630 2086 
Q 2541 1997 2413 1997 
Q 2285 1997 2224 2070 
Q 2163 2144 2163 2253 
Q 2163 2310 2211 2403 
Q 2259 2496 2259 2560 
Q 2259 2688 2022 2688 
Q 1619 2688 1325 2381 
Q 742 1766 742 890 
Q 742 544 889 352 
Q 1037 160 1312 160 
Q 1562 160 1766 281 
Q 1971 403 2240 685 
z
" transform="scale(0.015625)"/>
      </defs>
      <use xlink:href="#STIXGeneral-Italic-72" transform="translate(0 0.59375)"/>
      <use xlink:href="#STIXGeneral-Italic-63" transform="translate(38.899994 -12.634375) scale(0.7)"/>
      <use xlink:href="#STIXGeneral-Regular-3d" transform="translate(88.829361 0.59375)"/>
      <use xlink:href="#STIXGeneral-Regular-31" transform="translate(171.769342 0.59375)"/>
      <use xlink:href="#STIXGeneral-Regular-2e" transform="translate(221.769327 0.59375)"/>
      <use xlink:href="#STIXGeneral-Regular-31" transform="translate(246.769312 0.59375)"/>
      <use xlink:href="#STIXGeneral-Regular-32" transform="translate(296.769296 0.59375)"/>
      <use xlink:href="#STIXGeneral-Regular-32" transform="translate(346.769281 0.59375)"/>
      <use xlink:href="#STIXGeneral-Regular-34" transform="translate(396.769266 0.59375)"/>
      <use xlink:href="#STIXGeneral-Regular-36" transform="translate(446.76925 0.59375)"/>
      <use xlink:href="#STIXGeneral-Italic-3c3" transform="translate(496.769235 0.59375)"/>
     </g>
    </g>
    <g id="LineCollection_4">
     <path d="M 91.831981 70.018313 
L 91.831981 60.018313 
" style="fill: none; stroke: #cc6677; stroke-width: 1.5"/>
    </g>
    <g id="line2d_39">
     <g>
      <use xlink:href="#mc3d4351caa" x="91.831981" y="70.018313" style="fill: #cc6677; stroke: #cc6677"/>
     </g>
    </g>
    <g id="line2d_40">
     <g>
      <use xlink:href="#mc3d4351caa" x="91.831981" y="60.018313" style="fill: #cc6677; stroke: #cc6677"/>
     </g>
    </g>
    <g id="line2d_41"/>
    <g id="line2d_42">
     <g>
      <use xlink:href="#m7c1da2024a" x="91.831981" y="65.018313" style="fill: #cc6677; stroke: #cc6677"/>
     </g>
    </g>
    <g id="text_15">
     <!-- $r_c = 2.5\sigma$ -->
     <g transform="translate(109.831981 68.518313) scale(0.1 -0.1)">
      <defs>
       <path id="STIXGeneral-Regular-35" d="M 2803 4358 
L 2573 3814 
Q 2534 3731 2400 3731 
L 1158 3731 
L 902 3187 
Q 1606 3053 1920 2896 
Q 2234 2739 2502 2368 
Q 2726 2061 2726 1555 
Q 2726 1094 2576 780 
Q 2426 467 2099 224 
Q 1664 -90 1011 -90 
Q 646 -90 422 19 
Q 198 128 198 307 
Q 198 550 486 550 
Q 717 550 960 352 
Q 1210 147 1414 147 
Q 1747 147 2012 480 
Q 2278 813 2278 1229 
Q 2278 1843 1850 2189 
Q 1293 2637 486 2637 
Q 410 2637 410 2688 
L 416 2720 
L 1114 4237 
L 2438 4237 
Q 2547 4237 2608 4269 
Q 2669 4301 2746 4403 
L 2803 4358 
z
" transform="scale(0.015625)"/>
      </defs>
      <use xlink:href="#STIXGeneral-Italic-72" transform="translate(0 0.203125)"/>
      <use xlink:href="#STIXGeneral-Italic-63" transform="translate(38.899994 -13.025) scale(0.7)"/>
      <use xlink:href="#STIXGeneral-Regular-3d" transform="translate(88.829361 0.203125)"/>
      <use xlink:href="#STIXGeneral-Regular-32" transform="translate(171.769342 0.203125)"/>
      <use xlink:href="#STIXGeneral-Regular-2e" transform="translate(221.769327 0.203125)"/>
      <use xlink:href="#STIXGeneral-Regular-35" transform="translate(246.769312 0.203125)"/>
      <use xlink:href="#STIXGeneral-Italic-3c3" transform="translate(296.769296 0.203125)"/>
     </g>
    </g>
   </g>
  </g>
 </g>
 <defs>
  <clipPath id="p5d9b6e2106">
   <rect x="72.831981" y="8.748" width="204.368019" height="187.762455"/>
  </clipPath>
 </defs>
</svg>
