<?xml version="1.0" encoding="utf-8" standalone="no"?>
<!DOCTYPE svg PUBLIC "-//W3C//DTD SVG 1.1//EN"
  "http://www.w3.org/Graphics/SVG/1.1/DTD/svg11.dtd">
<svg xmlns:xlink="http://www.w3.org/1999/xlink" width="352.971875pt" height="255.42825pt" viewBox="0 0 352.971875 255.42825" xmlns="http://www.w3.org/2000/svg" version="1.1">
 <metadata>
  <rdf:RDF xmlns:dc="http://purl.org/dc/elements/1.1/" xmlns:cc="http://creativecommons.org/ns#" xmlns:rdf="http://www.w3.org/1999/02/22-rdf-syntax-ns#">
   <cc:Work>
    <dc:type rdf:resource="http://purl.org/dc/dcmitype/StillImage"/>
    <dc:date>2025-05-25T17:42:33.725701</dc:date>
    <dc:format>image/svg+xml</dc:format>
    <dc:creator>
     <cc:Agent>
      <dc:title>Matplotlib v3.8.2, https://matplotlib.org/</dc:title>
     </cc:Agent>
    </dc:creator>
   </cc:Work>
  </rdf:RDF>
 </metadata>
 <defs>
  <style type="text/css">*{stroke-linejoin: round; stroke-linecap: butt}</style>
 </defs>
 <g id="figure_1">
  <g id="patch_1">
   <path d="M 0 255.42825 
L 352.971875 255.42825 
L 352.971875 0 
L 0 0 
z
" style="fill: #ffffff"/>
  </g>
  <g id="axes_1">
   <g id="patch_2">
    <path d="M 57.228125 217.872 
L 336.228125 217.872 
L 336.228125 7.2 
L 57.228125 7.2 
z
" style="fill: #ffffff"/>
   </g>
   <g id="PathCollection_1">
    <defs>
     <path id="m4ad99aee59" d="M 0 5 
C 1.326016 5 2.597899 4.473168 3.535534 3.535534 
C 4.473168 2.597899 5 1.326016 5 0 
C 5 -1.326016 4.473168 -2.597899 3.535534 -3.535534 
C 2.597899 -4.473168 1.326016 -5 0 -5 
C -1.326016 -5 -2.597899 -4.473168 -3.535534 -3.535534 
C -4.473168 -2.597899 -5 -1.326016 -5 0 
C -5 1.326016 -4.473168 2.597899 -3.535534 3.535534 
C -2.597899 4.473168 -1.326016 5 0 5 
z
" style="stroke: #0000ff; stroke-opacity: 0.9"/>
    </defs>
    <g clip-path="url(#p58ca74b0d4)">
     <use xlink:href="#m4ad99aee59" x="57.228125" y="217.616299" style="fill: #0000ff; fill-opacity: 0.9; stroke: #0000ff; stroke-opacity: 0.9"/>
     <use xlink:href="#m4ad99aee59" x="62.03847" y="217.616299" style="fill: #0000ff; fill-opacity: 0.9; stroke: #0000ff; stroke-opacity: 0.9"/>
     <use xlink:href="#m4ad99aee59" x="64.443642" y="217.360598" style="fill: #0000ff; fill-opacity: 0.9; stroke: #0000ff; stroke-opacity: 0.9"/>
     <use xlink:href="#m4ad99aee59" x="66.848815" y="217.616299" style="fill: #0000ff; fill-opacity: 0.9; stroke: #0000ff; stroke-opacity: 0.9"/>
     <use xlink:href="#m4ad99aee59" x="69.253987" y="214.547888" style="fill: #0000ff; fill-opacity: 0.9; stroke: #0000ff; stroke-opacity: 0.9"/>
     <use xlink:href="#m4ad99aee59" x="71.659159" y="211.990879" style="fill: #0000ff; fill-opacity: 0.9; stroke: #0000ff; stroke-opacity: 0.9"/>
     <use xlink:href="#m4ad99aee59" x="74.064332" y="210.712374" style="fill: #0000ff; fill-opacity: 0.9; stroke: #0000ff; stroke-opacity: 0.9"/>
     <use xlink:href="#m4ad99aee59" x="76.469504" y="204.831252" style="fill: #0000ff; fill-opacity: 0.9; stroke: #0000ff; stroke-opacity: 0.9"/>
     <use xlink:href="#m4ad99aee59" x="78.874677" y="192.046206" style="fill: #0000ff; fill-opacity: 0.9; stroke: #0000ff; stroke-opacity: 0.9"/>
     <use xlink:href="#m4ad99aee59" x="81.279849" y="184.886579" style="fill: #0000ff; fill-opacity: 0.9; stroke: #0000ff; stroke-opacity: 0.9"/>
     <use xlink:href="#m4ad99aee59" x="83.685022" y="166.220411" style="fill: #0000ff; fill-opacity: 0.9; stroke: #0000ff; stroke-opacity: 0.9"/>
     <use xlink:href="#m4ad99aee59" x="86.090194" y="149.59985" style="fill: #0000ff; fill-opacity: 0.9; stroke: #0000ff; stroke-opacity: 0.9"/>
     <use xlink:href="#m4ad99aee59" x="88.495366" y="134.769196" style="fill: #0000ff; fill-opacity: 0.9; stroke: #0000ff; stroke-opacity: 0.9"/>
     <use xlink:href="#m4ad99aee59" x="90.900539" y="112.267514" style="fill: #0000ff; fill-opacity: 0.9; stroke: #0000ff; stroke-opacity: 0.9"/>
     <use xlink:href="#m4ad99aee59" x="93.305711" y="90.021533" style="fill: #0000ff; fill-opacity: 0.9; stroke: #0000ff; stroke-opacity: 0.9"/>
     <use xlink:href="#m4ad99aee59" x="95.710884" y="91.300037" style="fill: #0000ff; fill-opacity: 0.9; stroke: #0000ff; stroke-opacity: 0.9"/>
     <use xlink:href="#m4ad99aee59" x="98.116056" y="76.213682" style="fill: #0000ff; fill-opacity: 0.9; stroke: #0000ff; stroke-opacity: 0.9"/>
     <use xlink:href="#m4ad99aee59" x="100.521228" y="64.451439" style="fill: #0000ff; fill-opacity: 0.9; stroke: #0000ff; stroke-opacity: 0.9"/>
     <use xlink:href="#m4ad99aee59" x="102.926401" y="61.383028" style="fill: #0000ff; fill-opacity: 0.9; stroke: #0000ff; stroke-opacity: 0.9"/>
     <use xlink:href="#m4ad99aee59" x="105.331573" y="59.08172" style="fill: #0000ff; fill-opacity: 0.9; stroke: #0000ff; stroke-opacity: 0.9"/>
     <use xlink:href="#m4ad99aee59" x="107.736746" y="59.593121" style="fill: #0000ff; fill-opacity: 0.9; stroke: #0000ff; stroke-opacity: 0.9"/>
     <use xlink:href="#m4ad99aee59" x="110.141918" y="64.70714" style="fill: #0000ff; fill-opacity: 0.9; stroke: #0000ff; stroke-opacity: 0.9"/>
     <use xlink:href="#m4ad99aee59" x="112.547091" y="71.099664" style="fill: #0000ff; fill-opacity: 0.9; stroke: #0000ff; stroke-opacity: 0.9"/>
     <use xlink:href="#m4ad99aee59" x="114.952263" y="68.798355" style="fill: #0000ff; fill-opacity: 0.9; stroke: #0000ff; stroke-opacity: 0.9"/>
     <use xlink:href="#m4ad99aee59" x="117.357435" y="66.497047" style="fill: #0000ff; fill-opacity: 0.9; stroke: #0000ff; stroke-opacity: 0.9"/>
     <use xlink:href="#m4ad99aee59" x="119.762608" y="58.314617" style="fill: #0000ff; fill-opacity: 0.9; stroke: #0000ff; stroke-opacity: 0.9"/>
     <use xlink:href="#m4ad99aee59" x="122.16778" y="69.309757" style="fill: #0000ff; fill-opacity: 0.9; stroke: #0000ff; stroke-opacity: 0.9"/>
     <use xlink:href="#m4ad99aee59" x="124.572953" y="69.054056" style="fill: #0000ff; fill-opacity: 0.9; stroke: #0000ff; stroke-opacity: 0.9"/>
     <use xlink:href="#m4ad99aee59" x="126.978125" y="79.793495" style="fill: #0000ff; fill-opacity: 0.9; stroke: #0000ff; stroke-opacity: 0.9"/>
     <use xlink:href="#m4ad99aee59" x="129.383297" y="83.373308" style="fill: #0000ff; fill-opacity: 0.9; stroke: #0000ff; stroke-opacity: 0.9"/>
     <use xlink:href="#m4ad99aee59" x="131.78847" y="79.026393" style="fill: #0000ff; fill-opacity: 0.9; stroke: #0000ff; stroke-opacity: 0.9"/>
     <use xlink:href="#m4ad99aee59" x="134.193642" y="77.747888" style="fill: #0000ff; fill-opacity: 0.9; stroke: #0000ff; stroke-opacity: 0.9"/>
     <use xlink:href="#m4ad99aee59" x="136.598815" y="91.555738" style="fill: #0000ff; fill-opacity: 0.9; stroke: #0000ff; stroke-opacity: 0.9"/>
     <use xlink:href="#m4ad99aee59" x="139.003987" y="78.514991" style="fill: #0000ff; fill-opacity: 0.9; stroke: #0000ff; stroke-opacity: 0.9"/>
     <use xlink:href="#m4ad99aee59" x="141.409159" y="62.917234" style="fill: #0000ff; fill-opacity: 0.9; stroke: #0000ff; stroke-opacity: 0.9"/>
     <use xlink:href="#m4ad99aee59" x="143.814332" y="66.241346" style="fill: #0000ff; fill-opacity: 0.9; stroke: #0000ff; stroke-opacity: 0.9"/>
     <use xlink:href="#m4ad99aee59" x="146.219504" y="52.689196" style="fill: #0000ff; fill-opacity: 0.9; stroke: #0000ff; stroke-opacity: 0.9"/>
     <use xlink:href="#m4ad99aee59" x="148.624677" y="42.71686" style="fill: #0000ff; fill-opacity: 0.9; stroke: #0000ff; stroke-opacity: 0.9"/>
     <use xlink:href="#m4ad99aee59" x="151.029849" y="52.689196" style="fill: #0000ff; fill-opacity: 0.9; stroke: #0000ff; stroke-opacity: 0.9"/>
     <use xlink:href="#m4ad99aee59" x="153.435022" y="26.352" style="fill: #0000ff; fill-opacity: 0.9; stroke: #0000ff; stroke-opacity: 0.9"/>
     <use xlink:href="#m4ad99aee59" x="155.840194" y="44.506766" style="fill: #0000ff; fill-opacity: 0.9; stroke: #0000ff; stroke-opacity: 0.9"/>
     <use xlink:href="#m4ad99aee59" x="158.245366" y="31.72172" style="fill: #0000ff; fill-opacity: 0.9; stroke: #0000ff; stroke-opacity: 0.9"/>
     <use xlink:href="#m4ad99aee59" x="160.650539" y="27.119103" style="fill: #0000ff; fill-opacity: 0.9; stroke: #0000ff; stroke-opacity: 0.9"/>
     <use xlink:href="#m4ad99aee59" x="163.055711" y="34.790131" style="fill: #0000ff; fill-opacity: 0.9; stroke: #0000ff; stroke-opacity: 0.9"/>
     <use xlink:href="#m4ad99aee59" x="165.460884" y="28.653308" style="fill: #0000ff; fill-opacity: 0.9; stroke: #0000ff; stroke-opacity: 0.9"/>
     <use xlink:href="#m4ad99aee59" x="167.866056" y="34.53443" style="fill: #0000ff; fill-opacity: 0.9; stroke: #0000ff; stroke-opacity: 0.9"/>
     <use xlink:href="#m4ad99aee59" x="170.271228" y="42.972561" style="fill: #0000ff; fill-opacity: 0.9; stroke: #0000ff; stroke-opacity: 0.9"/>
     <use xlink:href="#m4ad99aee59" x="172.676401" y="39.90415" style="fill: #0000ff; fill-opacity: 0.9; stroke: #0000ff; stroke-opacity: 0.9"/>
     <use xlink:href="#m4ad99aee59" x="175.081573" y="50.387888" style="fill: #0000ff; fill-opacity: 0.9; stroke: #0000ff; stroke-opacity: 0.9"/>
     <use xlink:href="#m4ad99aee59" x="177.486746" y="46.808075" style="fill: #0000ff; fill-opacity: 0.9; stroke: #0000ff; stroke-opacity: 0.9"/>
     <use xlink:href="#m4ad99aee59" x="179.891918" y="59.08172" style="fill: #0000ff; fill-opacity: 0.9; stroke: #0000ff; stroke-opacity: 0.9"/>
     <use xlink:href="#m4ad99aee59" x="182.297091" y="53.456299" style="fill: #0000ff; fill-opacity: 0.9; stroke: #0000ff; stroke-opacity: 0.9"/>
     <use xlink:href="#m4ad99aee59" x="184.702263" y="67.26415" style="fill: #0000ff; fill-opacity: 0.9; stroke: #0000ff; stroke-opacity: 0.9"/>
     <use xlink:href="#m4ad99aee59" x="187.107435" y="60.360224" style="fill: #0000ff; fill-opacity: 0.9; stroke: #0000ff; stroke-opacity: 0.9"/>
     <use xlink:href="#m4ad99aee59" x="189.512608" y="63.684336" style="fill: #0000ff; fill-opacity: 0.9; stroke: #0000ff; stroke-opacity: 0.9"/>
     <use xlink:href="#m4ad99aee59" x="191.91778" y="63.172935" style="fill: #0000ff; fill-opacity: 0.9; stroke: #0000ff; stroke-opacity: 0.9"/>
     <use xlink:href="#m4ad99aee59" x="194.322953" y="63.684336" style="fill: #0000ff; fill-opacity: 0.9; stroke: #0000ff; stroke-opacity: 0.9"/>
     <use xlink:href="#m4ad99aee59" x="196.728125" y="73.400972" style="fill: #0000ff; fill-opacity: 0.9; stroke: #0000ff; stroke-opacity: 0.9"/>
     <use xlink:href="#m4ad99aee59" x="199.133297" y="82.350505" style="fill: #0000ff; fill-opacity: 0.9; stroke: #0000ff; stroke-opacity: 0.9"/>
     <use xlink:href="#m4ad99aee59" x="201.53847" y="82.094804" style="fill: #0000ff; fill-opacity: 0.9; stroke: #0000ff; stroke-opacity: 0.9"/>
     <use xlink:href="#m4ad99aee59" x="203.943642" y="73.912374" style="fill: #0000ff; fill-opacity: 0.9; stroke: #0000ff; stroke-opacity: 0.9"/>
     <use xlink:href="#m4ad99aee59" x="206.348815" y="101.528075" style="fill: #0000ff; fill-opacity: 0.9; stroke: #0000ff; stroke-opacity: 0.9"/>
     <use xlink:href="#m4ad99aee59" x="208.753987" y="91.044336" style="fill: #0000ff; fill-opacity: 0.9; stroke: #0000ff; stroke-opacity: 0.9"/>
     <use xlink:href="#m4ad99aee59" x="211.159159" y="99.482467" style="fill: #0000ff; fill-opacity: 0.9; stroke: #0000ff; stroke-opacity: 0.9"/>
     <use xlink:href="#m4ad99aee59" x="213.564332" y="99.482467" style="fill: #0000ff; fill-opacity: 0.9; stroke: #0000ff; stroke-opacity: 0.9"/>
     <use xlink:href="#m4ad99aee59" x="215.969504" y="109.199103" style="fill: #0000ff; fill-opacity: 0.9; stroke: #0000ff; stroke-opacity: 0.9"/>
     <use xlink:href="#m4ad99aee59" x="218.374677" y="109.710505" style="fill: #0000ff; fill-opacity: 0.9; stroke: #0000ff; stroke-opacity: 0.9"/>
     <use xlink:href="#m4ad99aee59" x="220.779849" y="115.591626" style="fill: #0000ff; fill-opacity: 0.9; stroke: #0000ff; stroke-opacity: 0.9"/>
     <use xlink:href="#m4ad99aee59" x="223.185022" y="111.500411" style="fill: #0000ff; fill-opacity: 0.9; stroke: #0000ff; stroke-opacity: 0.9"/>
     <use xlink:href="#m4ad99aee59" x="225.590194" y="114.568822" style="fill: #0000ff; fill-opacity: 0.9; stroke: #0000ff; stroke-opacity: 0.9"/>
     <use xlink:href="#m4ad99aee59" x="227.995366" y="115.847327" style="fill: #0000ff; fill-opacity: 0.9; stroke: #0000ff; stroke-opacity: 0.9"/>
     <use xlink:href="#m4ad99aee59" x="230.400539" y="118.915738" style="fill: #0000ff; fill-opacity: 0.9; stroke: #0000ff; stroke-opacity: 0.9"/>
     <use xlink:href="#m4ad99aee59" x="232.805711" y="110.477607" style="fill: #0000ff; fill-opacity: 0.9; stroke: #0000ff; stroke-opacity: 0.9"/>
     <use xlink:href="#m4ad99aee59" x="235.210884" y="107.664897" style="fill: #0000ff; fill-opacity: 0.9; stroke: #0000ff; stroke-opacity: 0.9"/>
     <use xlink:href="#m4ad99aee59" x="237.616056" y="116.870131" style="fill: #0000ff; fill-opacity: 0.9; stroke: #0000ff; stroke-opacity: 0.9"/>
     <use xlink:href="#m4ad99aee59" x="240.021228" y="103.573682" style="fill: #0000ff; fill-opacity: 0.9; stroke: #0000ff; stroke-opacity: 0.9"/>
     <use xlink:href="#m4ad99aee59" x="242.426401" y="109.710505" style="fill: #0000ff; fill-opacity: 0.9; stroke: #0000ff; stroke-opacity: 0.9"/>
     <use xlink:href="#m4ad99aee59" x="244.831573" y="101.783776" style="fill: #0000ff; fill-opacity: 0.9; stroke: #0000ff; stroke-opacity: 0.9"/>
     <use xlink:href="#m4ad99aee59" x="247.236746" y="109.454804" style="fill: #0000ff; fill-opacity: 0.9; stroke: #0000ff; stroke-opacity: 0.9"/>
     <use xlink:href="#m4ad99aee59" x="249.641918" y="98.203963" style="fill: #0000ff; fill-opacity: 0.9; stroke: #0000ff; stroke-opacity: 0.9"/>
     <use xlink:href="#m4ad99aee59" x="252.047091" y="100.24957" style="fill: #0000ff; fill-opacity: 0.9; stroke: #0000ff; stroke-opacity: 0.9"/>
     <use xlink:href="#m4ad99aee59" x="254.452263" y="101.528075" style="fill: #0000ff; fill-opacity: 0.9; stroke: #0000ff; stroke-opacity: 0.9"/>
     <use xlink:href="#m4ad99aee59" x="256.857435" y="91.300037" style="fill: #0000ff; fill-opacity: 0.9; stroke: #0000ff; stroke-opacity: 0.9"/>
     <use xlink:href="#m4ad99aee59" x="259.262608" y="103.317981" style="fill: #0000ff; fill-opacity: 0.9; stroke: #0000ff; stroke-opacity: 0.9"/>
     <use xlink:href="#m4ad99aee59" x="261.66778" y="89.510131" style="fill: #0000ff; fill-opacity: 0.9; stroke: #0000ff; stroke-opacity: 0.9"/>
     <use xlink:href="#m4ad99aee59" x="264.072953" y="98.971065" style="fill: #0000ff; fill-opacity: 0.9; stroke: #0000ff; stroke-opacity: 0.9"/>
     <use xlink:href="#m4ad99aee59" x="266.478125" y="96.669757" style="fill: #0000ff; fill-opacity: 0.9; stroke: #0000ff; stroke-opacity: 0.9"/>
     <use xlink:href="#m4ad99aee59" x="268.883297" y="104.596486" style="fill: #0000ff; fill-opacity: 0.9; stroke: #0000ff; stroke-opacity: 0.9"/>
     <use xlink:href="#m4ad99aee59" x="271.28847" y="111.756112" style="fill: #0000ff; fill-opacity: 0.9; stroke: #0000ff; stroke-opacity: 0.9"/>
     <use xlink:href="#m4ad99aee59" x="273.693642" y="107.664897" style="fill: #0000ff; fill-opacity: 0.9; stroke: #0000ff; stroke-opacity: 0.9"/>
     <use xlink:href="#m4ad99aee59" x="276.098815" y="118.404336" style="fill: #0000ff; fill-opacity: 0.9; stroke: #0000ff; stroke-opacity: 0.9"/>
     <use xlink:href="#m4ad99aee59" x="278.503987" y="122.23985" style="fill: #0000ff; fill-opacity: 0.9; stroke: #0000ff; stroke-opacity: 0.9"/>
     <use xlink:href="#m4ad99aee59" x="280.909159" y="129.655178" style="fill: #0000ff; fill-opacity: 0.9; stroke: #0000ff; stroke-opacity: 0.9"/>
     <use xlink:href="#m4ad99aee59" x="283.314332" y="136.303402" style="fill: #0000ff; fill-opacity: 0.9; stroke: #0000ff; stroke-opacity: 0.9"/>
     <use xlink:href="#m4ad99aee59" x="285.719504" y="137.326206" style="fill: #0000ff; fill-opacity: 0.9; stroke: #0000ff; stroke-opacity: 0.9"/>
     <use xlink:href="#m4ad99aee59" x="288.124677" y="150.111252" style="fill: #0000ff; fill-opacity: 0.9; stroke: #0000ff; stroke-opacity: 0.9"/>
     <use xlink:href="#m4ad99aee59" x="290.529849" y="155.992374" style="fill: #0000ff; fill-opacity: 0.9; stroke: #0000ff; stroke-opacity: 0.9"/>
     <use xlink:href="#m4ad99aee59" x="292.935022" y="160.083589" style="fill: #0000ff; fill-opacity: 0.9; stroke: #0000ff; stroke-opacity: 0.9"/>
     <use xlink:href="#m4ad99aee59" x="295.340194" y="165.453308" style="fill: #0000ff; fill-opacity: 0.9; stroke: #0000ff; stroke-opacity: 0.9"/>
     <use xlink:href="#m4ad99aee59" x="297.745366" y="169.288822" style="fill: #0000ff; fill-opacity: 0.9; stroke: #0000ff; stroke-opacity: 0.9"/>
     <use xlink:href="#m4ad99aee59" x="300.150539" y="178.494056" style="fill: #0000ff; fill-opacity: 0.9; stroke: #0000ff; stroke-opacity: 0.9"/>
     <use xlink:href="#m4ad99aee59" x="302.555711" y="179.005458" style="fill: #0000ff; fill-opacity: 0.9; stroke: #0000ff; stroke-opacity: 0.9"/>
     <use xlink:href="#m4ad99aee59" x="304.960884" y="184.630879" style="fill: #0000ff; fill-opacity: 0.9; stroke: #0000ff; stroke-opacity: 0.9"/>
     <use xlink:href="#m4ad99aee59" x="307.366056" y="186.420785" style="fill: #0000ff; fill-opacity: 0.9; stroke: #0000ff; stroke-opacity: 0.9"/>
     <use xlink:href="#m4ad99aee59" x="309.771228" y="195.626019" style="fill: #0000ff; fill-opacity: 0.9; stroke: #0000ff; stroke-opacity: 0.9"/>
     <use xlink:href="#m4ad99aee59" x="312.176401" y="196.648822" style="fill: #0000ff; fill-opacity: 0.9; stroke: #0000ff; stroke-opacity: 0.9"/>
     <use xlink:href="#m4ad99aee59" x="314.581573" y="198.69443" style="fill: #0000ff; fill-opacity: 0.9; stroke: #0000ff; stroke-opacity: 0.9"/>
     <use xlink:href="#m4ad99aee59" x="316.986746" y="203.297047" style="fill: #0000ff; fill-opacity: 0.9; stroke: #0000ff; stroke-opacity: 0.9"/>
     <use xlink:href="#m4ad99aee59" x="319.391918" y="203.808449" style="fill: #0000ff; fill-opacity: 0.9; stroke: #0000ff; stroke-opacity: 0.9"/>
     <use xlink:href="#m4ad99aee59" x="321.797091" y="208.922467" style="fill: #0000ff; fill-opacity: 0.9; stroke: #0000ff; stroke-opacity: 0.9"/>
     <use xlink:href="#m4ad99aee59" x="324.202263" y="209.433869" style="fill: #0000ff; fill-opacity: 0.9; stroke: #0000ff; stroke-opacity: 0.9"/>
     <use xlink:href="#m4ad99aee59" x="326.607435" y="211.735178" style="fill: #0000ff; fill-opacity: 0.9; stroke: #0000ff; stroke-opacity: 0.9"/>
     <use xlink:href="#m4ad99aee59" x="329.012608" y="214.547888" style="fill: #0000ff; fill-opacity: 0.9; stroke: #0000ff; stroke-opacity: 0.9"/>
     <use xlink:href="#m4ad99aee59" x="331.41778" y="215.570692" style="fill: #0000ff; fill-opacity: 0.9; stroke: #0000ff; stroke-opacity: 0.9"/>
     <use xlink:href="#m4ad99aee59" x="333.822953" y="216.593495" style="fill: #0000ff; fill-opacity: 0.9; stroke: #0000ff; stroke-opacity: 0.9"/>
     <use xlink:href="#m4ad99aee59" x="336.228125" y="217.360598" style="fill: #0000ff; fill-opacity: 0.9; stroke: #0000ff; stroke-opacity: 0.9"/>
    </g>
   </g>
   <g id="matplotlib.axis_1">
    <g id="xtick_1">
     <g id="line2d_1">
      <defs>
       <path id="m92a6a2d8ba" d="M 0 0 
L 0 3.5 
" style="stroke: #000000; stroke-width: 0.8"/>
      </defs>
      <g>
       <use xlink:href="#m92a6a2d8ba" x="95.710884" y="217.872" style="stroke: #000000; stroke-width: 0.8"/>
      </g>
     </g>
     <g id="text_1">
      <!-- 80 -->
      <g transform="translate(89.348384 232.470438) scale(0.1 -0.1)">
       <defs>
        <path id="DejaVuSans-38" d="M 2034 2216 
Q 1584 2216 1326 1975 
Q 1069 1734 1069 1313 
Q 1069 891 1326 650 
Q 1584 409 2034 409 
Q 2484 409 2743 651 
Q 3003 894 3003 1313 
Q 3003 1734 2745 1975 
Q 2488 2216 2034 2216 
z
M 1403 2484 
Q 997 2584 770 2862 
Q 544 3141 544 3541 
Q 544 4100 942 4425 
Q 1341 4750 2034 4750 
Q 2731 4750 3128 4425 
Q 3525 4100 3525 3541 
Q 3525 3141 3298 2862 
Q 3072 2584 2669 2484 
Q 3125 2378 3379 2068 
Q 3634 1759 3634 1313 
Q 3634 634 3220 271 
Q 2806 -91 2034 -91 
Q 1263 -91 848 271 
Q 434 634 434 1313 
Q 434 1759 690 2068 
Q 947 2378 1403 2484 
z
M 1172 3481 
Q 1172 3119 1398 2916 
Q 1625 2713 2034 2713 
Q 2441 2713 2670 2916 
Q 2900 3119 2900 3481 
Q 2900 3844 2670 4047 
Q 2441 4250 2034 4250 
Q 1625 4250 1398 4047 
Q 1172 3844 1172 3481 
z
" transform="scale(0.015625)"/>
        <path id="DejaVuSans-30" d="M 2034 4250 
Q 1547 4250 1301 3770 
Q 1056 3291 1056 2328 
Q 1056 1369 1301 889 
Q 1547 409 2034 409 
Q 2525 409 2770 889 
Q 3016 1369 3016 2328 
Q 3016 3291 2770 3770 
Q 2525 4250 2034 4250 
z
M 2034 4750 
Q 2819 4750 3233 4129 
Q 3647 3509 3647 2328 
Q 3647 1150 3233 529 
Q 2819 -91 2034 -91 
Q 1250 -91 836 529 
Q 422 1150 422 2328 
Q 422 3509 836 4129 
Q 1250 4750 2034 4750 
z
" transform="scale(0.015625)"/>
       </defs>
       <use xlink:href="#DejaVuSans-38"/>
       <use xlink:href="#DejaVuSans-30" x="63.623047"/>
      </g>
     </g>
    </g>
    <g id="xtick_2">
     <g id="line2d_2">
      <g>
       <use xlink:href="#m92a6a2d8ba" x="143.814332" y="217.872" style="stroke: #000000; stroke-width: 0.8"/>
      </g>
     </g>
     <g id="text_2">
      <!-- 100 -->
      <g transform="translate(134.270582 232.470438) scale(0.1 -0.1)">
       <defs>
        <path id="DejaVuSans-31" d="M 794 531 
L 1825 531 
L 1825 4091 
L 703 3866 
L 703 4441 
L 1819 4666 
L 2450 4666 
L 2450 531 
L 3481 531 
L 3481 0 
L 794 0 
L 794 531 
z
" transform="scale(0.015625)"/>
       </defs>
       <use xlink:href="#DejaVuSans-31"/>
       <use xlink:href="#DejaVuSans-30" x="63.623047"/>
       <use xlink:href="#DejaVuSans-30" x="127.246094"/>
      </g>
     </g>
    </g>
    <g id="xtick_3">
     <g id="line2d_3">
      <g>
       <use xlink:href="#m92a6a2d8ba" x="191.91778" y="217.872" style="stroke: #000000; stroke-width: 0.8"/>
      </g>
     </g>
     <g id="text_3">
      <!-- 120 -->
      <g transform="translate(182.37403 232.470438) scale(0.1 -0.1)">
       <defs>
        <path id="DejaVuSans-32" d="M 1228 531 
L 3431 531 
L 3431 0 
L 469 0 
L 469 531 
Q 828 903 1448 1529 
Q 2069 2156 2228 2338 
Q 2531 2678 2651 2914 
Q 2772 3150 2772 3378 
Q 2772 3750 2511 3984 
Q 2250 4219 1831 4219 
Q 1534 4219 1204 4116 
Q 875 4013 500 3803 
L 500 4441 
Q 881 4594 1212 4672 
Q 1544 4750 1819 4750 
Q 2544 4750 2975 4387 
Q 3406 4025 3406 3419 
Q 3406 3131 3298 2873 
Q 3191 2616 2906 2266 
Q 2828 2175 2409 1742 
Q 1991 1309 1228 531 
z
" transform="scale(0.015625)"/>
       </defs>
       <use xlink:href="#DejaVuSans-31"/>
       <use xlink:href="#DejaVuSans-32" x="63.623047"/>
       <use xlink:href="#DejaVuSans-30" x="127.246094"/>
      </g>
     </g>
    </g>
    <g id="xtick_4">
     <g id="line2d_4">
      <g>
       <use xlink:href="#m92a6a2d8ba" x="240.021228" y="217.872" style="stroke: #000000; stroke-width: 0.8"/>
      </g>
     </g>
     <g id="text_4">
      <!-- 140 -->
      <g transform="translate(230.477478 232.470438) scale(0.1 -0.1)">
       <defs>
        <path id="DejaVuSans-34" d="M 2419 4116 
L 825 1625 
L 2419 1625 
L 2419 4116 
z
M 2253 4666 
L 3047 4666 
L 3047 1625 
L 3713 1625 
L 3713 1100 
L 3047 1100 
L 3047 0 
L 2419 0 
L 2419 1100 
L 313 1100 
L 313 1709 
L 2253 4666 
z
" transform="scale(0.015625)"/>
       </defs>
       <use xlink:href="#DejaVuSans-31"/>
       <use xlink:href="#DejaVuSans-34" x="63.623047"/>
       <use xlink:href="#DejaVuSans-30" x="127.246094"/>
      </g>
     </g>
    </g>
    <g id="xtick_5">
     <g id="line2d_5">
      <g>
       <use xlink:href="#m92a6a2d8ba" x="288.124677" y="217.872" style="stroke: #000000; stroke-width: 0.8"/>
      </g>
     </g>
     <g id="text_5">
      <!-- 160 -->
      <g transform="translate(278.580927 232.470438) scale(0.1 -0.1)">
       <defs>
        <path id="DejaVuSans-36" d="M 2113 2584 
Q 1688 2584 1439 2293 
Q 1191 2003 1191 1497 
Q 1191 994 1439 701 
Q 1688 409 2113 409 
Q 2538 409 2786 701 
Q 3034 994 3034 1497 
Q 3034 2003 2786 2293 
Q 2538 2584 2113 2584 
z
M 3366 4563 
L 3366 3988 
Q 3128 4100 2886 4159 
Q 2644 4219 2406 4219 
Q 1781 4219 1451 3797 
Q 1122 3375 1075 2522 
Q 1259 2794 1537 2939 
Q 1816 3084 2150 3084 
Q 2853 3084 3261 2657 
Q 3669 2231 3669 1497 
Q 3669 778 3244 343 
Q 2819 -91 2113 -91 
Q 1303 -91 875 529 
Q 447 1150 447 2328 
Q 447 3434 972 4092 
Q 1497 4750 2381 4750 
Q 2619 4750 2861 4703 
Q 3103 4656 3366 4563 
z
" transform="scale(0.015625)"/>
       </defs>
       <use xlink:href="#DejaVuSans-31"/>
       <use xlink:href="#DejaVuSans-36" x="63.623047"/>
       <use xlink:href="#DejaVuSans-30" x="127.246094"/>
      </g>
     </g>
    </g>
    <g id="xtick_6">
     <g id="line2d_6">
      <g>
       <use xlink:href="#m92a6a2d8ba" x="336.228125" y="217.872" style="stroke: #000000; stroke-width: 0.8"/>
      </g>
     </g>
     <g id="text_6">
      <!-- 180 -->
      <g transform="translate(326.684375 232.470438) scale(0.1 -0.1)">
       <use xlink:href="#DejaVuSans-31"/>
       <use xlink:href="#DejaVuSans-38" x="63.623047"/>
       <use xlink:href="#DejaVuSans-30" x="127.246094"/>
      </g>
     </g>
    </g>
    <g id="text_7">
     <!-- $\theta_{A-A-A} \; (\mathrm{^\circ})$ -->
     <g transform="translate(168.728125 246.148562) scale(0.1 -0.1)">
      <defs>
       <path id="DejaVuSans-Oblique-3b8" d="M 2913 2219 
L 925 2219 
Q 791 1284 928 888 
Q 1100 400 1566 400 
Q 2034 400 2391 891 
Q 2703 1322 2913 2219 
z
M 3009 2750 
Q 3094 3638 2984 3950 
Q 2813 4444 2353 4444 
Q 1875 4444 1525 3956 
Q 1250 3563 1034 2750 
L 3009 2750 
z
M 2444 4913 
Q 3194 4913 3494 4250 
Q 3794 3591 3566 2422 
Q 3341 1256 2781 594 
Q 2225 -72 1475 -72 
Q 722 -72 425 594 
Q 128 1256 353 2422 
Q 581 3591 1134 4250 
Q 1691 4913 2444 4913 
z
" transform="scale(0.015625)"/>
       <path id="DejaVuSans-Oblique-41" d="M 2356 4666 
L 3072 4666 
L 3938 0 
L 3278 0 
L 3084 1197 
L 984 1197 
L 325 0 
L -341 0 
L 2356 4666 
z
M 2584 4044 
L 1275 1722 
L 2988 1722 
L 2584 4044 
z
" transform="scale(0.015625)"/>
       <path id="DejaVuSans-2212" d="M 678 2272 
L 4684 2272 
L 4684 1741 
L 678 1741 
L 678 2272 
z
" transform="scale(0.015625)"/>
       <path id="DejaVuSans-28" d="M 1984 4856 
Q 1566 4138 1362 3434 
Q 1159 2731 1159 2009 
Q 1159 1288 1364 580 
Q 1569 -128 1984 -844 
L 1484 -844 
Q 1016 -109 783 600 
Q 550 1309 550 2009 
Q 550 2706 781 3412 
Q 1013 4119 1484 4856 
L 1984 4856 
z
" transform="scale(0.015625)"/>
       <path id="DejaVuSans-2218" d="M 2003 2603 
Q 1753 2603 1581 2429 
Q 1409 2256 1409 2006 
Q 1409 1759 1581 1589 
Q 1753 1419 2003 1419 
Q 2253 1419 2425 1589 
Q 2597 1759 2597 2006 
Q 2597 2253 2423 2428 
Q 2250 2603 2003 2603 
z
M 2003 3006 
Q 2203 3006 2387 2929 
Q 2572 2853 2706 2709 
Q 2850 2569 2922 2390 
Q 2994 2212 2994 2006 
Q 2994 1594 2705 1308 
Q 2416 1022 1997 1022 
Q 1575 1022 1294 1303 
Q 1013 1584 1013 2006 
Q 1013 2425 1300 2715 
Q 1588 3006 2003 3006 
z
" transform="scale(0.015625)"/>
       <path id="DejaVuSans-29" d="M 513 4856 
L 1013 4856 
Q 1481 4119 1714 3412 
Q 1947 2706 1947 2009 
Q 1947 1309 1714 600 
Q 1481 -109 1013 -844 
L 513 -844 
Q 928 -128 1133 580 
Q 1338 1288 1338 2009 
Q 1338 2731 1133 3434 
Q 928 4138 513 4856 
z
" transform="scale(0.015625)"/>
      </defs>
      <use xlink:href="#DejaVuSans-Oblique-3b8" transform="translate(0 0.234375)"/>
      <use xlink:href="#DejaVuSans-Oblique-41" transform="translate(61.181641 -16.171875) scale(0.7)"/>
      <use xlink:href="#DejaVuSans-2212" transform="translate(122.705078 -16.171875) scale(0.7)"/>
      <use xlink:href="#DejaVuSans-Oblique-41" transform="translate(194.995117 -16.171875) scale(0.7)"/>
      <use xlink:href="#DejaVuSans-2212" transform="translate(256.518555 -16.171875) scale(0.7)"/>
      <use xlink:href="#DejaVuSans-Oblique-41" transform="translate(328.808594 -16.171875) scale(0.7)"/>
      <use xlink:href="#DejaVuSans-28" transform="translate(406.487847 0.234375)"/>
      <use xlink:href="#DejaVuSans-2218" transform="translate(460.096245 38.515625) scale(0.7)"/>
      <use xlink:href="#DejaVuSans-29" transform="translate(520.286675 0.234375)"/>
     </g>
    </g>
   </g>
   <g id="matplotlib.axis_2">
    <g id="ytick_1">
     <g id="line2d_7">
      <defs>
       <path id="mf0d198fa06" d="M 0 0 
L -3.5 0 
" style="stroke: #000000; stroke-width: 0.8"/>
      </defs>
      <g>
       <use xlink:href="#mf0d198fa06" x="57.228125" y="217.872" style="stroke: #000000; stroke-width: 0.8"/>
      </g>
     </g>
     <g id="text_8">
      <!-- 0.000 -->
      <g transform="translate(21.6 221.671219) scale(0.1 -0.1)">
       <defs>
        <path id="DejaVuSans-2e" d="M 684 794 
L 1344 794 
L 1344 0 
L 684 0 
L 684 794 
z
" transform="scale(0.015625)"/>
       </defs>
       <use xlink:href="#DejaVuSans-30"/>
       <use xlink:href="#DejaVuSans-2e" x="63.623047"/>
       <use xlink:href="#DejaVuSans-30" x="95.410156"/>
       <use xlink:href="#DejaVuSans-30" x="159.033203"/>
       <use xlink:href="#DejaVuSans-30" x="222.65625"/>
      </g>
     </g>
    </g>
    <g id="ytick_2">
     <g id="line2d_8">
      <g>
       <use xlink:href="#mf0d198fa06" x="57.228125" y="193.836112" style="stroke: #000000; stroke-width: 0.8"/>
      </g>
     </g>
     <g id="text_9">
      <!-- 0.002 -->
      <g transform="translate(21.6 197.635331) scale(0.1 -0.1)">
       <use xlink:href="#DejaVuSans-30"/>
       <use xlink:href="#DejaVuSans-2e" x="63.623047"/>
       <use xlink:href="#DejaVuSans-30" x="95.410156"/>
       <use xlink:href="#DejaVuSans-30" x="159.033203"/>
       <use xlink:href="#DejaVuSans-32" x="222.65625"/>
      </g>
     </g>
    </g>
    <g id="ytick_3">
     <g id="line2d_9">
      <g>
       <use xlink:href="#mf0d198fa06" x="57.228125" y="169.800224" style="stroke: #000000; stroke-width: 0.8"/>
      </g>
     </g>
     <g id="text_10">
      <!-- 0.004 -->
      <g transform="translate(21.6 173.599443) scale(0.1 -0.1)">
       <use xlink:href="#DejaVuSans-30"/>
       <use xlink:href="#DejaVuSans-2e" x="63.623047"/>
       <use xlink:href="#DejaVuSans-30" x="95.410156"/>
       <use xlink:href="#DejaVuSans-30" x="159.033203"/>
       <use xlink:href="#DejaVuSans-34" x="222.65625"/>
      </g>
     </g>
    </g>
    <g id="ytick_4">
     <g id="line2d_10">
      <g>
       <use xlink:href="#mf0d198fa06" x="57.228125" y="145.764336" style="stroke: #000000; stroke-width: 0.8"/>
      </g>
     </g>
     <g id="text_11">
      <!-- 0.006 -->
      <g transform="translate(21.6 149.563555) scale(0.1 -0.1)">
       <use xlink:href="#DejaVuSans-30"/>
       <use xlink:href="#DejaVuSans-2e" x="63.623047"/>
       <use xlink:href="#DejaVuSans-30" x="95.410156"/>
       <use xlink:href="#DejaVuSans-30" x="159.033203"/>
       <use xlink:href="#DejaVuSans-36" x="222.65625"/>
      </g>
     </g>
    </g>
    <g id="ytick_5">
     <g id="line2d_11">
      <g>
       <use xlink:href="#mf0d198fa06" x="57.228125" y="121.728449" style="stroke: #000000; stroke-width: 0.8"/>
      </g>
     </g>
     <g id="text_12">
      <!-- 0.008 -->
      <g transform="translate(21.6 125.527667) scale(0.1 -0.1)">
       <use xlink:href="#DejaVuSans-30"/>
       <use xlink:href="#DejaVuSans-2e" x="63.623047"/>
       <use xlink:href="#DejaVuSans-30" x="95.410156"/>
       <use xlink:href="#DejaVuSans-30" x="159.033203"/>
       <use xlink:href="#DejaVuSans-38" x="222.65625"/>
      </g>
     </g>
    </g>
    <g id="ytick_6">
     <g id="line2d_12">
      <g>
       <use xlink:href="#mf0d198fa06" x="57.228125" y="97.692561" style="stroke: #000000; stroke-width: 0.8"/>
      </g>
     </g>
     <g id="text_13">
      <!-- 0.010 -->
      <g transform="translate(21.6 101.491779) scale(0.1 -0.1)">
       <use xlink:href="#DejaVuSans-30"/>
       <use xlink:href="#DejaVuSans-2e" x="63.623047"/>
       <use xlink:href="#DejaVuSans-30" x="95.410156"/>
       <use xlink:href="#DejaVuSans-31" x="159.033203"/>
       <use xlink:href="#DejaVuSans-30" x="222.65625"/>
      </g>
     </g>
    </g>
    <g id="ytick_7">
     <g id="line2d_13">
      <g>
       <use xlink:href="#mf0d198fa06" x="57.228125" y="73.656673" style="stroke: #000000; stroke-width: 0.8"/>
      </g>
     </g>
     <g id="text_14">
      <!-- 0.012 -->
      <g transform="translate(21.6 77.455892) scale(0.1 -0.1)">
       <use xlink:href="#DejaVuSans-30"/>
       <use xlink:href="#DejaVuSans-2e" x="63.623047"/>
       <use xlink:href="#DejaVuSans-30" x="95.410156"/>
       <use xlink:href="#DejaVuSans-31" x="159.033203"/>
       <use xlink:href="#DejaVuSans-32" x="222.65625"/>
      </g>
     </g>
    </g>
    <g id="ytick_8">
     <g id="line2d_14">
      <g>
       <use xlink:href="#mf0d198fa06" x="57.228125" y="49.620785" style="stroke: #000000; stroke-width: 0.8"/>
      </g>
     </g>
     <g id="text_15">
      <!-- 0.014 -->
      <g transform="translate(21.6 53.420004) scale(0.1 -0.1)">
       <use xlink:href="#DejaVuSans-30"/>
       <use xlink:href="#DejaVuSans-2e" x="63.623047"/>
       <use xlink:href="#DejaVuSans-30" x="95.410156"/>
       <use xlink:href="#DejaVuSans-31" x="159.033203"/>
       <use xlink:href="#DejaVuSans-34" x="222.65625"/>
      </g>
     </g>
    </g>
    <g id="ytick_9">
     <g id="line2d_15">
      <g>
       <use xlink:href="#mf0d198fa06" x="57.228125" y="25.584897" style="stroke: #000000; stroke-width: 0.8"/>
      </g>
     </g>
     <g id="text_16">
      <!-- 0.016 -->
      <g transform="translate(21.6 29.384116) scale(0.1 -0.1)">
       <use xlink:href="#DejaVuSans-30"/>
       <use xlink:href="#DejaVuSans-2e" x="63.623047"/>
       <use xlink:href="#DejaVuSans-30" x="95.410156"/>
       <use xlink:href="#DejaVuSans-31" x="159.033203"/>
       <use xlink:href="#DejaVuSans-36" x="222.65625"/>
      </g>
     </g>
    </g>
    <g id="text_17">
     <!-- $P_{angle}$ -->
     <g transform="translate(14.5 125.436) rotate(-90) scale(0.1 -0.1)">
      <defs>
       <path id="DejaVuSans-Oblique-50" d="M 1081 4666 
L 2541 4666 
Q 3178 4666 3512 4369 
Q 3847 4072 3847 3500 
Q 3847 2731 3353 2303 
Q 2859 1875 1966 1875 
L 1172 1875 
L 806 0 
L 172 0 
L 1081 4666 
z
M 1613 4147 
L 1275 2394 
L 2069 2394 
Q 2606 2394 2893 2669 
Q 3181 2944 3181 3456 
Q 3181 3784 2986 3965 
Q 2791 4147 2438 4147 
L 1613 4147 
z
" transform="scale(0.015625)"/>
       <path id="DejaVuSans-Oblique-61" d="M 3438 1997 
L 3047 0 
L 2472 0 
L 2578 531 
Q 2325 219 2001 64 
Q 1678 -91 1281 -91 
Q 834 -91 548 182 
Q 263 456 263 884 
Q 263 1497 752 1853 
Q 1241 2209 2100 2209 
L 2900 2209 
L 2931 2363 
Q 2938 2388 2941 2417 
Q 2944 2447 2944 2509 
Q 2944 2788 2717 2942 
Q 2491 3097 2081 3097 
Q 1800 3097 1504 3025 
Q 1209 2953 897 2809 
L 997 3341 
Q 1322 3463 1633 3523 
Q 1944 3584 2234 3584 
Q 2853 3584 3176 3315 
Q 3500 3047 3500 2534 
Q 3500 2431 3484 2292 
Q 3469 2153 3438 1997 
z
M 2816 1759 
L 2241 1759 
Q 1534 1759 1195 1570 
Q 856 1381 856 984 
Q 856 709 1029 553 
Q 1203 397 1509 397 
Q 1978 397 2328 733 
Q 2678 1069 2791 1631 
L 2816 1759 
z
" transform="scale(0.015625)"/>
       <path id="DejaVuSans-Oblique-6e" d="M 3566 2113 
L 3156 0 
L 2578 0 
L 2988 2091 
Q 3016 2238 3031 2350 
Q 3047 2463 3047 2528 
Q 3047 2791 2881 2937 
Q 2716 3084 2419 3084 
Q 1956 3084 1622 2776 
Q 1288 2469 1184 1941 
L 800 0 
L 225 0 
L 903 3500 
L 1478 3500 
L 1363 2950 
Q 1603 3253 1940 3418 
Q 2278 3584 2650 3584 
Q 3113 3584 3367 3334 
Q 3622 3084 3622 2631 
Q 3622 2519 3608 2391 
Q 3594 2263 3566 2113 
z
" transform="scale(0.015625)"/>
       <path id="DejaVuSans-Oblique-67" d="M 3816 3500 
L 3219 434 
Q 3047 -456 2561 -893 
Q 2075 -1331 1253 -1331 
Q 950 -1331 690 -1286 
Q 431 -1241 206 -1147 
L 313 -588 
Q 525 -725 762 -790 
Q 1000 -856 1269 -856 
Q 1816 -856 2167 -557 
Q 2519 -259 2631 300 
L 2681 563 
Q 2441 288 2122 144 
Q 1803 0 1434 0 
Q 903 0 598 351 
Q 294 703 294 1319 
Q 294 1803 478 2267 
Q 663 2731 997 3091 
Q 1219 3328 1514 3456 
Q 1809 3584 2131 3584 
Q 2484 3584 2746 3420 
Q 3009 3256 3138 2956 
L 3238 3500 
L 3816 3500 
z
M 2950 2216 
Q 2950 2641 2750 2872 
Q 2550 3103 2181 3103 
Q 1953 3103 1747 3012 
Q 1541 2922 1394 2759 
Q 1156 2491 1023 2127 
Q 891 1763 891 1375 
Q 891 944 1092 712 
Q 1294 481 1672 481 
Q 2219 481 2584 976 
Q 2950 1472 2950 2216 
z
" transform="scale(0.015625)"/>
       <path id="DejaVuSans-Oblique-6c" d="M 1172 4863 
L 1747 4863 
L 800 0 
L 225 0 
L 1172 4863 
z
" transform="scale(0.015625)"/>
       <path id="DejaVuSans-Oblique-65" d="M 3078 2063 
Q 3088 2113 3092 2166 
Q 3097 2219 3097 2272 
Q 3097 2653 2873 2875 
Q 2650 3097 2266 3097 
Q 1838 3097 1509 2826 
Q 1181 2556 1013 2059 
L 3078 2063 
z
M 3578 1613 
L 903 1613 
Q 884 1494 878 1425 
Q 872 1356 872 1306 
Q 872 872 1139 634 
Q 1406 397 1894 397 
Q 2269 397 2603 481 
Q 2938 566 3225 728 
L 3116 159 
Q 2806 34 2476 -28 
Q 2147 -91 1806 -91 
Q 1078 -91 686 257 
Q 294 606 294 1247 
Q 294 1794 489 2264 
Q 684 2734 1063 3103 
Q 1306 3334 1642 3459 
Q 1978 3584 2356 3584 
Q 2950 3584 3301 3228 
Q 3653 2872 3653 2272 
Q 3653 2128 3634 1964 
Q 3616 1800 3578 1613 
z
" transform="scale(0.015625)"/>
      </defs>
      <use xlink:href="#DejaVuSans-Oblique-50" transform="translate(0 0.09375)"/>
      <use xlink:href="#DejaVuSans-Oblique-61" transform="translate(60.302734 -16.3125) scale(0.7)"/>
      <use xlink:href="#DejaVuSans-Oblique-6e" transform="translate(103.198242 -16.3125) scale(0.7)"/>
      <use xlink:href="#DejaVuSans-Oblique-67" transform="translate(147.563477 -16.3125) scale(0.7)"/>
      <use xlink:href="#DejaVuSans-Oblique-6c" transform="translate(191.99707 -16.3125) scale(0.7)"/>
      <use xlink:href="#DejaVuSans-Oblique-65" transform="translate(211.445312 -16.3125) scale(0.7)"/>
     </g>
    </g>
   </g>
   <g id="line2d_16">
    <path d="M 57.228125 208.827626 
L 60.046307 206.001997 
L 62.864489 202.570935 
L 65.68267 198.484773 
L 68.500852 193.708992 
L 71.319034 188.227851 
L 74.137216 182.047148 
L 76.955398 175.195838 
L 79.77358 167.726351 
L 82.591761 159.713541 
L 85.409943 151.252347 
L 88.228125 142.454322 
L 91.046307 133.44331 
L 93.864489 124.350557 
L 96.68267 115.309619 
L 99.500852 106.451384 
L 102.319034 97.899486 
L 105.137216 89.766369 
L 107.955398 82.150143 
L 110.77358 75.132333 
L 113.591761 68.77654 
L 116.409943 63.127974 
L 119.228125 58.213763 
L 122.046307 54.043937 
L 124.864489 50.612919 
L 127.68267 47.901399 
L 130.500852 45.878434 
L 133.319034 44.503647 
L 136.137216 43.729429 
L 138.955398 43.503027 
L 141.77358 43.768475 
L 144.591761 44.468316 
L 147.409943 45.545079 
L 150.228125 46.942516 
L 153.046307 48.606592 
L 155.864489 50.486244 
L 158.68267 52.533932 
L 161.500852 54.706004 
L 164.319034 56.962905 
L 167.137216 59.269249 
L 169.955398 61.593795 
L 172.77358 63.909336 
L 175.591761 66.192531 
L 178.409943 68.4237 
L 181.228125 70.586596 
L 184.046307 72.668163 
L 186.864489 74.658297 
L 189.68267 76.549622 
L 192.500852 78.337272 
L 195.319034 80.018702 
L 198.137216 81.593513 
L 200.955398 83.063309 
L 203.77358 84.431573 
L 206.591761 85.703568 
L 209.409943 86.88626 
L 212.228125 87.988259 
L 215.046307 89.019778 
L 217.864489 89.992596 
L 220.68267 90.920041 
L 223.500852 91.816958 
L 226.319034 92.699686 
L 229.137216 93.586013 
L 231.955398 94.495116 
L 234.77358 95.447473 
L 237.591761 96.464733 
L 240.409943 97.569543 
L 243.228125 98.785327 
L 246.046307 100.135991 
L 248.864489 101.645564 
L 251.68267 103.337769 
L 254.500852 105.235505 
L 257.319034 107.360267 
L 260.137216 109.731484 
L 262.955398 112.365807 
L 265.77358 115.276345 
L 268.591761 118.471892 
L 271.409943 121.956161 
L 274.228125 125.72707 
L 277.046307 129.77612 
L 279.864489 134.087914 
L 282.68267 138.639868 
L 285.500852 143.402158 
L 288.319034 148.33794 
L 291.137216 153.403894 
L 293.955398 158.551083 
L 296.77358 163.726144 
L 299.591761 168.872782 
L 302.409943 173.933512 
L 305.228125 178.851582 
L 308.046307 183.572976 
L 310.864489 188.048395 
L 313.68267 192.235078 
L 316.500852 196.098351 
L 319.319034 199.612804 
L 322.137216 202.762988 
L 324.955398 205.543601 
L 327.77358 207.959138 
L 330.591761 210.02304 
L 333.409943 211.756414 
L 336.228125 213.186429 
" clip-path="url(#p58ca74b0d4)" style="fill: none; stroke-dasharray: 7.4,3.2; stroke-dashoffset: 0; stroke: #ff0000; stroke-width: 2"/>
   </g>
   <g id="patch_3">
    <path d="M 57.228125 217.872 
L 57.228125 7.2 
" style="fill: none; stroke: #000000; stroke-width: 0.8; stroke-linejoin: miter; stroke-linecap: square"/>
   </g>
   <g id="patch_4">
    <path d="M 336.228125 217.872 
L 336.228125 7.2 
" style="fill: none; stroke: #000000; stroke-width: 0.8; stroke-linejoin: miter; stroke-linecap: square"/>
   </g>
   <g id="patch_5">
    <path d="M 57.228125 217.872 
L 336.228125 217.872 
" style="fill: none; stroke: #000000; stroke-width: 0.8; stroke-linejoin: miter; stroke-linecap: square"/>
   </g>
   <g id="patch_6">
    <path d="M 57.228125 7.2 
L 336.228125 7.2 
" style="fill: none; stroke: #000000; stroke-width: 0.8; stroke-linejoin: miter; stroke-linecap: square"/>
   </g>
   <g id="legend_1">
    <g id="patch_7">
     <path d="M 266.11875 44.55625 
L 329.228125 44.55625 
Q 331.228125 44.55625 331.228125 42.55625 
L 331.228125 14.2 
Q 331.228125 12.2 329.228125 12.2 
L 266.11875 12.2 
Q 264.11875 12.2 264.11875 14.2 
L 264.11875 42.55625 
Q 264.11875 44.55625 266.11875 44.55625 
z
" style="fill: #ffffff; opacity: 0.8; stroke: #cccccc; stroke-linejoin: miter"/>
    </g>
    <g id="PathCollection_2">
     <g>
      <use xlink:href="#m4ad99aee59" x="278.11875" y="21.173438" style="fill: #0000ff; fill-opacity: 0.9; stroke: #0000ff; stroke-opacity: 0.9"/>
     </g>
    </g>
    <g id="text_18">
     <!-- AA -->
     <g transform="translate(296.11875 23.798438) scale(0.1 -0.1)">
      <defs>
       <path id="DejaVuSans-41" d="M 2188 4044 
L 1331 1722 
L 3047 1722 
L 2188 4044 
z
M 1831 4666 
L 2547 4666 
L 4325 0 
L 3669 0 
L 3244 1197 
L 1141 1197 
L 716 0 
L 50 0 
L 1831 4666 
z
" transform="scale(0.015625)"/>
      </defs>
      <use xlink:href="#DejaVuSans-41"/>
      <use xlink:href="#DejaVuSans-41" x="71.158203"/>
     </g>
    </g>
    <g id="line2d_17">
     <path d="M 268.11875 34.976562 
L 278.11875 34.976562 
L 288.11875 34.976562 
" style="fill: none; stroke-dasharray: 7.4,3.2; stroke-dashoffset: 0; stroke: #ff0000; stroke-width: 2"/>
    </g>
    <g id="text_19">
     <!-- Fitting -->
     <g transform="translate(296.11875 38.476562) scale(0.1 -0.1)">
      <defs>
       <path id="DejaVuSans-46" d="M 628 4666 
L 3309 4666 
L 3309 4134 
L 1259 4134 
L 1259 2759 
L 3109 2759 
L 3109 2228 
L 1259 2228 
L 1259 0 
L 628 0 
L 628 4666 
z
" transform="scale(0.015625)"/>
       <path id="DejaVuSans-69" d="M 603 3500 
L 1178 3500 
L 1178 0 
L 603 0 
L 603 3500 
z
M 603 4863 
L 1178 4863 
L 1178 4134 
L 603 4134 
L 603 4863 
z
" transform="scale(0.015625)"/>
       <path id="DejaVuSans-74" d="M 1172 4494 
L 1172 3500 
L 2356 3500 
L 2356 3053 
L 1172 3053 
L 1172 1153 
Q 1172 725 1289 603 
Q 1406 481 1766 481 
L 2356 481 
L 2356 0 
L 1766 0 
Q 1100 0 847 248 
Q 594 497 594 1153 
L 594 3053 
L 172 3053 
L 172 3500 
L 594 3500 
L 594 4494 
L 1172 4494 
z
" transform="scale(0.015625)"/>
       <path id="DejaVuSans-6e" d="M 3513 2113 
L 3513 0 
L 2938 0 
L 2938 2094 
Q 2938 2591 2744 2837 
Q 2550 3084 2163 3084 
Q 1697 3084 1428 2787 
Q 1159 2491 1159 1978 
L 1159 0 
L 581 0 
L 581 3500 
L 1159 3500 
L 1159 2956 
Q 1366 3272 1645 3428 
Q 1925 3584 2291 3584 
Q 2894 3584 3203 3211 
Q 3513 2838 3513 2113 
z
" transform="scale(0.015625)"/>
       <path id="DejaVuSans-67" d="M 2906 1791 
Q 2906 2416 2648 2759 
Q 2391 3103 1925 3103 
Q 1463 3103 1205 2759 
Q 947 2416 947 1791 
Q 947 1169 1205 825 
Q 1463 481 1925 481 
Q 2391 481 2648 825 
Q 2906 1169 2906 1791 
z
M 3481 434 
Q 3481 -459 3084 -895 
Q 2688 -1331 1869 -1331 
Q 1566 -1331 1297 -1286 
Q 1028 -1241 775 -1147 
L 775 -588 
Q 1028 -725 1275 -790 
Q 1522 -856 1778 -856 
Q 2344 -856 2625 -561 
Q 2906 -266 2906 331 
L 2906 616 
Q 2728 306 2450 153 
Q 2172 0 1784 0 
Q 1141 0 747 490 
Q 353 981 353 1791 
Q 353 2603 747 3093 
Q 1141 3584 1784 3584 
Q 2172 3584 2450 3431 
Q 2728 3278 2906 2969 
L 2906 3500 
L 3481 3500 
L 3481 434 
z
" transform="scale(0.015625)"/>
      </defs>
      <use xlink:href="#DejaVuSans-46"/>
      <use xlink:href="#DejaVuSans-69" x="50.269531"/>
      <use xlink:href="#DejaVuSans-74" x="78.052734"/>
      <use xlink:href="#DejaVuSans-74" x="117.261719"/>
      <use xlink:href="#DejaVuSans-69" x="156.470703"/>
      <use xlink:href="#DejaVuSans-6e" x="184.253906"/>
      <use xlink:href="#DejaVuSans-67" x="247.632812"/>
     </g>
    </g>
   </g>
  </g>
 </g>
 <defs>
  <clipPath id="p58ca74b0d4">
   <rect x="57.228125" y="7.2" width="279" height="210.672"/>
  </clipPath>
 </defs>
</svg>
